<?xml version="1.0" encoding="utf-8"?>
<!-- Generator: Adobe Illustrator 25.0.0, SVG Export Plug-In . SVG Version: 6.00 Build 0)  -->
<svg version="1.1" xmlns="http://www.w3.org/2000/svg" xmlns:xlink="http://www.w3.org/1999/xlink" x="0px" y="0px"
	 viewBox="0 0 726.76 698.46" style="enable-background:new 0 0 726.76 698.46;" xml:space="preserve">
<style type="text/css">
	.st0{fill:#1D0000;}
	.st1{display:none;}
	.st2{fill:#FFFFFF;}
	.st3{fill:#E3BBA0;}
	.st4{fill:#FF9282;}
	.st5{fill:#8ACC01;}
	.st6{fill:url(#SVGID_1_);}
	.st7{fill:url(#SVGID_2_);}
	.st8{fill:url(#SVGID_3_);}
	.st9{fill:#7D4625;}
	.st10{fill:url(#SVGID_4_);}
	.st11{fill:url(#SVGID_5_);}
	.st12{fill:url(#SVGID_6_);}
	.st13{fill:url(#SVGID_7_);}
	.st14{fill:url(#SVGID_8_);}
	.st15{fill:url(#SVGID_9_);}
	.st16{fill:url(#SVGID_10_);}
	.st17{fill:url(#SVGID_11_);}
	.st18{fill:url(#SVGID_12_);}
	.st19{fill:url(#SVGID_13_);}
	.st20{fill:url(#SVGID_14_);}
	.st21{fill:url(#SVGID_15_);}
	.st22{fill:url(#SVGID_16_);}
	.st23{fill:url(#SVGID_17_);}
	.st24{fill:url(#SVGID_18_);}
	.st25{fill:url(#SVGID_19_);}
	.st26{fill:url(#SVGID_20_);}
	.st27{fill:url(#SVGID_21_);}
	.st28{fill:url(#SVGID_22_);}
	.st29{fill:url(#SVGID_23_);}
	.st30{fill:url(#SVGID_24_);}
	.st31{fill:url(#SVGID_25_);}
	.st32{fill:url(#SVGID_26_);}
	.st33{fill:url(#SVGID_27_);}
	.st34{fill:url(#SVGID_28_);}
	.st35{fill:url(#SVGID_29_);}
	.st36{fill:url(#SVGID_30_);}
	.st37{fill:url(#SVGID_31_);}
	.st38{fill:url(#SVGID_32_);}
	.st39{fill:url(#SVGID_33_);}
	.st40{fill:url(#SVGID_34_);}
	.st41{fill:url(#SVGID_35_);}
	.st42{fill:url(#SVGID_36_);}
	.st43{fill:url(#SVGID_37_);}
	.st44{fill:url(#SVGID_38_);}
	.st45{fill:url(#SVGID_39_);}
	.st46{fill:url(#SVGID_40_);}
</style>
<g id="black">
	<rect x="746.76" y="-773.02" class="st0" width="1926.64" height="504.29"/>
</g>
<g id="Calque_1" class="st1">
</g>
<g id="Calque_6">
</g>
<g id="Calque_2">
</g>
<g id="Color">
	<g>
		<circle class="st0" cx="1002.35" cy="-1289.02" r="8.46"/>
		<circle class="st0" cx="1047.26" cy="-1210.12" r="3.97"/>
		<circle class="st0" cx="1162.92" cy="-1096.35" r="5.86"/>
		<circle class="st0" cx="847.7" cy="-1092.2" r="11.72"/>
		<path class="st0" d="M1164.24-1015.85c-0.06-0.01-0.13-0.01-0.19-0.02c-5.11-0.48-8.83-4.88-8.26-9.98
			c0.44-3.91,0.87-7.6,1.22-10.32c1.28-9.78-0.99-22.39-12.19-46.63s-20.13-27.35-25.8-28.77c-5.67-1.42-4.54-3.54-4.68-6.8
			s10.77-36.14,11.48-38.41c0.71-2.27-1.13-6.52-3.26-8.08s-9.92,0.85-26.93,2.27c-17.01,1.42-39.68,18-46.63,22.39
			c-6.94,4.39-7.94,1.7-8.93-1.28c-0.99-2.98,8.93-23.53,8.93-23.53s-0.43-7.8-8.79-6.66c-8.36,1.13-12.9-0.99-15.59-3.26
			s-2.41-15.87-5.39-32.31c-1.85-10.21-7.36-19.43-11.27-24.96c-2.14-3.02-3.19-6.71-2.8-10.39c0.5-4.75-0.4-10.84-3.36-13.41
			c-2.48-2.15-6.92-2.26-10.19-1.97c-2.55,0.22-5.1-0.21-7.53-1.03c-9.97-3.34-23.53,2.3-40.39,1.63
			c-18.9-0.76-39.31-17.76-40.06-18.9c-0.76-1.13-11.34-9.07-17.39,0c-6.05,9.07-3.4,18.9,4.16,54.8
			c7.56,35.91,55.94,86.17,55.94,86.17s5.57,6-11.15,9.54c-16.72,3.54-41.39,21.12-50.74,30.47c-9.35,9.35-8.65,15.45-17.29,20.27
			c-8.65,4.82-13.04,4.82-17.72,19.98c-1.7,5.52-3.4,16.02-8.08,19.13c-4.68,3.12-9.92,15.31,3.69,23.53
			c6.19,3.74,14.46,4.11,15.02,11.76c0.57,7.65,8.22,47.06,22.25,75.12s45.5,43.65,61.8,52.72s45.64,20.13,51.31,20.27
			c3.5,0.09,12.89-0.2,19.56-0.44c4.82-0.17,9.63,0.49,14.22,1.95l9.41,2.99c4.94,1.57,10.29,1.17,14.94-1.11l18.33-8.99
			c2.74-1.34,5.8-1.88,8.83-1.56l6.4,0.68c12.25,1.31,23.25-7.5,24.66-19.74l2.26-19.69c0.37-3.22,2.03-6.17,4.63-8.11
			c5.35-4.01,13.65-11.07,14.67-12.6c6.8-10.2,3.83-32.03,7.23-37.42c3.4-5.39,4.82-11.76,8.22-18.85c1.56-3.25,2.67-9.54,3.42-15.4
			c0.34-2.65,3.18-4.09,5.57-2.91c1.55,0.76,3.29,1.19,5.13,1.19c6.91,0,12.42-5.98,11.64-13.04
			C1173.97-1010.91,1169.61-1015.26,1164.24-1015.85z M1041.35-1117.88l0.02-0.02c9.81-8.95,32.88-27.42,60.58-32.11
			c2.74-0.47,5,2.16,4.12,4.81c-3.18,9.65-11.09,28.99-24.81,34.87c-10.22,4.38-22.84,3.12-32.11,1.11
			c-1.07-0.23-1.23-1.69-0.23-2.16c10.91-5.09,23.19-13.35,30.12-18.26c-10.91,6.8-26.56,11.31-36.68,13.71
			C1041.24-1115.67,1040.49-1117.09,1041.35-1117.88z M1013.93-1157.36c0.28-3.33,3.47-5.58,6.72-4.81
			c3.07,0.73,6.71,1.89,9.33,3.64c2.2,1.46,3,4.32,1.93,6.74c-2.34,5.24-6.83,17.9-6.66,37.57c0.01,1.26-0.9,2.41-2.15,2.52
			c-0.98,0.08-1.84-0.4-2.3-1.17l-3.73-6.36c-1.55-2.65-2.47-5.62-2.69-8.68C1013.88-1134.86,1013.14-1147.98,1013.93-1157.36z
			 M928.59-1182.15c-30.61-52.54-38.55-78.61-36.28-83.53c2.27-4.91,19.28,21.54,54.05,22.3c34.77,0.76,60.09,13.98,60.85,40.44
			c0.43,15.05-2.44,33.58-3.4,50.02c-0.14,2.43-2.98,3.68-4.88,2.16c-70.99-56.71-75.06-78.45-75.06-78.45
			c-0.49,17.43,39.32,67.08,59.37,92.61c2,2.55-0.92,6.02-3.78,4.47C963.61-1140.69,943.92-1155.84,928.59-1182.15z
			 M1134.57-1027.57c-1.13,15.87-1.13,28.35-5.67,40.44s-7.94,32.5-13.23,41.57c-5.29,9.07-15.5,30.61-20.41,35.91
			c-4.91,5.29-45.35,42.71-89.57,46.11c-37.68,2.9-72.34-42.5-81.77-56c-0.95-1.36-3.05-0.9-3.36,0.72l-1.21,6.33
			c-0.59,3.06-4.36,4.2-6.53,1.97c-13.94-14.26-50.52-57.31-41.29-108.37c11.34-62.74,46.49-82.39,46.49-82.39
			s31.37-26.65,64.25-18.9s119.43,90.33,66.14,199.18c0,0,48.57-80.47,9.05-154.08c-2.14-3.98-4.97-7.52-8.01-10.86
			c-1.43-1.57-2.3-3.55-2.5-5.66c-0.23-2.43,1.11-4.74,3.31-5.79l2.2-1.05c1.32-0.63,2.75-0.95,4.21-0.95
			c7.39,0.01,30.95,0.06,34.45,0.38c4.16,0.38,21.92,1.51,28.72,22.3C1126.63-1055.91,1135.7-1043.44,1134.57-1027.57z"/>
		<circle class="st0" cx="805.37" cy="-1016.98" r="6.05"/>
		<circle class="st0" cx="1078.63" cy="-836.32" r="7.56"/>
		<circle class="st0" cx="1130.41" cy="-821.58" r="4.54"/>
		<circle class="st0" cx="1157.06" cy="-890.75" r="11.72"/>
	</g>
	<g>
		<circle class="st2" cx="1002.35" cy="-752.62" r="8.46"/>
		<circle class="st2" cx="1047.26" cy="-673.73" r="3.97"/>
		<circle class="st2" cx="1162.92" cy="-559.96" r="5.86"/>
		<circle class="st2" cx="847.7" cy="-555.81" r="11.72"/>
		<path class="st2" d="M1164.24-479.46c-0.06-0.01-0.13-0.01-0.19-0.02c-5.11-0.48-8.83-4.88-8.26-9.98
			c0.44-3.91,0.87-7.6,1.22-10.32c1.28-9.78-0.99-22.39-12.19-46.63s-20.13-27.35-25.8-28.77c-5.67-1.42-4.54-3.54-4.68-6.8
			c-0.14-3.26,10.77-36.14,11.48-38.41c0.71-2.27-1.13-6.52-3.26-8.08s-9.92,0.85-26.93,2.27c-17.01,1.42-39.68,18-46.63,22.39
			c-6.94,4.39-7.94,1.7-8.93-1.28c-0.99-2.98,8.93-23.53,8.93-23.53s-0.43-7.8-8.79-6.66s-12.9-0.99-15.59-3.26
			s-2.41-15.87-5.39-32.31c-1.85-10.21-7.36-19.43-11.27-24.96c-2.14-3.02-3.19-6.71-2.8-10.39c0.5-4.75-0.4-10.84-3.36-13.41
			c-2.48-2.15-6.92-2.26-10.19-1.97c-2.55,0.22-5.1-0.21-7.53-1.03c-9.97-3.34-23.53,2.3-40.39,1.63
			c-18.9-0.76-39.31-17.76-40.06-18.9c-0.76-1.13-11.34-9.07-17.39,0s-3.4,18.9,4.16,54.8c7.56,35.91,55.94,86.17,55.94,86.17
			s5.57,6-11.15,9.54c-16.72,3.54-41.39,21.12-50.74,30.47c-9.35,9.35-8.65,15.45-17.29,20.27s-13.04,4.82-17.72,19.98
			c-1.7,5.52-3.4,16.02-8.08,19.13s-9.92,15.31,3.69,23.53c6.19,3.74,14.46,4.11,15.02,11.76c0.57,7.65,8.22,47.06,22.25,75.12
			s45.5,43.65,61.8,52.72s45.64,20.13,51.31,20.27c3.5,0.09,12.89-0.2,19.56-0.44c4.82-0.17,9.63,0.49,14.22,1.95l9.41,2.99
			c4.94,1.57,10.29,1.17,14.94-1.11l18.33-8.99c2.74-1.34,5.8-1.88,8.83-1.56l6.4,0.68c12.25,1.31,23.25-7.5,24.66-19.74l2.26-19.69
			c0.37-3.22,2.03-6.17,4.63-8.11c5.35-4.01,13.65-11.07,14.67-12.6c6.8-10.2,3.83-32.03,7.23-37.42c3.4-5.39,4.82-11.76,8.22-18.85
			c1.56-3.25,2.67-9.54,3.42-15.4c0.34-2.65,3.18-4.09,5.57-2.91c1.55,0.76,3.29,1.19,5.13,1.19c6.91,0,12.42-5.98,11.64-13.04
			C1173.97-474.51,1169.61-478.87,1164.24-479.46z M1041.35-581.49l0.02-0.02c9.81-8.95,32.88-27.42,60.58-32.11
			c2.74-0.47,5,2.16,4.12,4.81c-3.18,9.65-11.09,28.99-24.81,34.87c-10.22,4.38-22.84,3.12-32.11,1.11
			c-1.07-0.23-1.23-1.69-0.23-2.16c10.91-5.09,23.19-13.35,30.12-18.26c-10.91,6.8-26.56,11.31-36.68,13.71
			C1041.24-579.28,1040.49-580.7,1041.35-581.49z M1013.93-620.97c0.28-3.33,3.47-5.58,6.72-4.81c3.07,0.73,6.71,1.89,9.33,3.64
			c2.2,1.46,3,4.32,1.93,6.74c-2.34,5.24-6.83,17.9-6.66,37.57c0.01,1.26-0.9,2.41-2.15,2.52c-0.98,0.08-1.84-0.4-2.3-1.17
			l-3.73-6.36c-1.55-2.65-2.47-5.62-2.69-8.68C1013.88-598.47,1013.14-611.59,1013.93-620.97z M928.59-645.76
			c-30.61-52.54-38.55-78.61-36.28-83.53s19.28,21.54,54.05,22.3c34.77,0.76,60.09,13.98,60.85,40.44
			c0.43,15.05-2.44,33.58-3.4,50.02c-0.14,2.43-2.98,3.68-4.88,2.16c-70.99-56.71-75.06-78.45-75.06-78.45
			c-0.49,17.43,39.32,67.08,59.37,92.61c2,2.55-0.92,6.02-3.78,4.47C963.61-604.3,943.92-619.45,928.59-645.76z M1134.57-491.18
			c-1.13,15.87-1.13,28.35-5.67,40.44s-7.94,32.5-13.23,41.57c-5.29,9.07-15.5,30.61-20.41,35.91
			c-4.91,5.29-45.35,42.71-89.57,46.11c-37.68,2.9-72.34-42.5-81.77-56c-0.95-1.36-3.05-0.9-3.36,0.72l-1.21,6.33
			c-0.59,3.06-4.36,4.2-6.53,1.97c-13.94-14.26-50.52-57.31-41.29-108.37c11.34-62.74,46.49-82.39,46.49-82.39
			s31.37-26.65,64.25-18.9c32.88,7.75,119.43,90.33,66.14,199.18c0,0,48.57-80.47,9.05-154.08c-2.14-3.98-4.97-7.52-8.01-10.86
			c-1.43-1.57-2.3-3.55-2.5-5.66c-0.23-2.43,1.11-4.74,3.31-5.79l2.2-1.05c1.32-0.63,2.75-0.95,4.21-0.95
			c7.39,0.01,30.95,0.06,34.45,0.38c4.16,0.38,21.92,1.51,28.72,22.3C1126.63-519.52,1135.7-507.05,1134.57-491.18z"/>
		<circle class="st2" cx="805.37" cy="-480.59" r="6.05"/>
		<circle class="st2" cx="1078.63" cy="-299.93" r="7.56"/>
		<circle class="st2" cx="1130.41" cy="-285.19" r="4.54"/>
		<circle class="st2" cx="1157.06" cy="-354.36" r="11.72"/>
	</g>
	<rect x="-1007.1" y="-991.57" class="st3" width="125.01" height="125.01"/>
	<g>
		<polygon class="st4" points="1572.74,-861.86 1523.51,-840.18 1488.9,-834.65 1448.67,-848.25 1406.15,-872.06 1366.18,-907.94 
			1351.73,-969.27 1351.73,-1017.48 1386.59,-1078.99 1427.41,-1098.36 1472.48,-1108.52 1497.36,-1088.48 1514.15,-1080.69 
			1560.17,-1084.17 1612.42,-1073.14 1621.49,-1048.94 1628.96,-993.77 1628.96,-960.51 1621.49,-940.95 1612.42,-912.88 
			1597.49,-889.92 		"/>
		<polygon class="st5" points="1476.22,-1105.51 1447.82,-1108.52 1404.45,-1159.5 1382.34,-1202.02 1373.84,-1237.73 
			1378.48,-1252.19 1401.9,-1236.88 1431.66,-1225.83 1469.93,-1226.68 1488.9,-1208.82 1500.13,-1182.93 1497.36,-1147.59 
			1488.9,-1106.77 		"/>
		<polygon class="st5" points="1518.92,-1084.17 1523.51,-1094.87 1529.84,-1108.52 1565.18,-1126.85 1597.49,-1133.99 
			1597.49,-1126.85 1592.82,-1108.52 1592.82,-1091.47 1577.65,-1082.96 1549.87,-1078.99 1526.34,-1081.26 		"/>
		<linearGradient id="SVGID_1_" gradientUnits="userSpaceOnUse" x1="1494.1742" y1="-1147.8586" x2="1429.4382" y2="-1219.7551">
			<stop  offset="0" style="stop-color:#006633"/>
			<stop  offset="0.0164" style="stop-color:#056937;stop-opacity:0.9831"/>
			<stop  offset="0.3768" style="stop-color:#6FA88B;stop-opacity:0.6123"/>
			<stop  offset="0.6663" style="stop-color:#BCD7CA;stop-opacity:0.3145"/>
			<stop  offset="0.8708" style="stop-color:#ECF4F0;stop-opacity:0.1042"/>
			<stop  offset="0.9721" style="stop-color:#FFFFFF;stop-opacity:0"/>
		</linearGradient>
		<path class="st6" d="M1428.19-1189.62c0,0,38.11,42.18,54.44,50.28c1.28,0.64,2.82-0.09,3.13-1.49
			c1.97-8.88,4.25-45.53-7.04-55.61c-13.32-11.91-31.46-16.16-50.17-17.86C1409.84-1216,1428.19-1189.62,1428.19-1189.62z"/>
		<linearGradient id="SVGID_2_" gradientUnits="userSpaceOnUse" x1="1543.4603" y1="-1086.0156" x2="1580.861" y2="-1105.0723">
			<stop  offset="0" style="stop-color:#006633"/>
			<stop  offset="0.0164" style="stop-color:#056937;stop-opacity:0.9831"/>
			<stop  offset="0.3768" style="stop-color:#6FA88B;stop-opacity:0.6123"/>
			<stop  offset="0.6663" style="stop-color:#BCD7CA;stop-opacity:0.3145"/>
			<stop  offset="0.8708" style="stop-color:#ECF4F0;stop-opacity:0.1042"/>
			<stop  offset="0.9721" style="stop-color:#FFFFFF;stop-opacity:0"/>
		</linearGradient>
		<path class="st7" d="M1544.03-1086.43c-1.6-0.27-1.95-2.42-0.52-3.18c6.19-3.27,18.85-10.38,24.93-16.88
			c8.22-8.79,12.81-1.84,10.8,2.83c-2.01,4.68-5.01,14.74-20.29,16.87C1551.57-1085.76,1546.9-1085.96,1544.03-1086.43z"/>
		
			<linearGradient id="SVGID_3_" gradientUnits="userSpaceOnUse" x1="1528.1588" y1="-1146.1183" x2="1565.4248" y2="-1165.1062" gradientTransform="matrix(0.9997 0.026 -0.026 0.9997 -22.6414 8.1392)">
			<stop  offset="0" style="stop-color:#006633"/>
			<stop  offset="0.0164" style="stop-color:#056937;stop-opacity:0.9831"/>
			<stop  offset="0.3768" style="stop-color:#6FA88B;stop-opacity:0.6123"/>
			<stop  offset="0.6663" style="stop-color:#BCD7CA;stop-opacity:0.3145"/>
			<stop  offset="0.8708" style="stop-color:#ECF4F0;stop-opacity:0.1042"/>
			<stop  offset="0.9721" style="stop-color:#FFFFFF;stop-opacity:0"/>
		</linearGradient>
		<path class="st8" d="M1535.46-1098.69c7.14-5.84,23.55-17.94,36.78-17.82c0,0-12.94,14.77-35.8,20.01
			C1535.21-1096.22,1534.47-1097.88,1535.46-1098.69z"/>
		<polygon class="st9" points="1514.15,-1080.69 1492.03,-1096.47 1495.73,-1124.06 1498.28,-1142.77 1509.52,-1145.32 
			1524.07,-1135.97 1520.11,-1090.9 		"/>
		<linearGradient id="SVGID_4_" gradientUnits="userSpaceOnUse" x1="1509.0006" y1="-1135.8052" x2="1509.0006" y2="-1096.3749">
			<stop  offset="0" style="stop-color:#7D4E24"/>
			<stop  offset="0.061" style="stop-color:#987352;stop-opacity:0.9373"/>
			<stop  offset="0.1254" style="stop-color:#B0947A;stop-opacity:0.871"/>
			<stop  offset="0.196" style="stop-color:#C5B19E;stop-opacity:0.7984"/>
			<stop  offset="0.2721" style="stop-color:#D7C9BC;stop-opacity:0.7201"/>
			<stop  offset="0.3553" style="stop-color:#E6DDD5;stop-opacity:0.6345"/>
			<stop  offset="0.4486" style="stop-color:#F1ECE8;stop-opacity:0.5385"/>
			<stop  offset="0.5577" style="stop-color:#F9F7F5;stop-opacity:0.4263"/>
			<stop  offset="0.6972" style="stop-color:#FEFDFD;stop-opacity:0.2828"/>
			<stop  offset="0.9721" style="stop-color:#FFFFFF;stop-opacity:0"/>
		</linearGradient>
		<path class="st10" d="M1506.96-1097.33l-2.88-4.88c-0.37-0.62-0.56-1.32-0.58-2.04l-0.47-25.86c-0.01-0.4,0.06-0.8,0.19-1.18
			l1.12-3.19c0.37-1.05,1.52-1.58,2.56-1.19l6.6,2.51c1.09,0.42,1.69,1.6,1.38,2.73l-4.48,16.35c-0.05,0.19-0.09,0.39-0.1,0.59
			l-1.41,16.36c-0.07,0.77-1.06,1.04-1.51,0.41l-0.35-0.5C1507.01-1097.26,1506.98-1097.3,1506.96-1097.33z"/>
		<g>
			<circle class="st0" cx="1488.9" cy="-1265.8" r="8.46"/>
			<circle class="st0" cx="1533.81" cy="-1186.9" r="3.97"/>
			<circle class="st0" cx="1649.46" cy="-1073.14" r="5.86"/>
			<circle class="st0" cx="1334.25" cy="-1068.98" r="11.72"/>
			<path class="st0" d="M1650.78-992.63c-0.06-0.01-0.13-0.01-0.19-0.02c-5.11-0.48-8.83-4.88-8.26-9.98
				c0.44-3.91,0.87-7.6,1.22-10.32c1.28-9.78-0.99-22.39-12.19-46.63s-20.13-27.35-25.8-28.77c-5.67-1.42-4.54-3.54-4.68-6.8
				s10.77-36.14,11.48-38.41c0.71-2.27-1.13-6.52-3.26-8.08s-9.92,0.85-26.93,2.27c-17.01,1.42-39.68,18-46.63,22.39
				c-6.94,4.39-7.94,1.7-8.93-1.28c-0.99-2.98,8.93-23.53,8.93-23.53s-0.43-7.8-8.79-6.66c-8.36,1.13-12.9-0.99-15.59-3.26
				s-2.41-15.87-5.39-32.31c-1.85-10.21-7.36-19.43-11.27-24.96c-2.14-3.02-3.19-6.71-2.8-10.39c0.5-4.75-0.4-10.84-3.36-13.41
				c-2.48-2.15-6.92-2.26-10.19-1.97c-2.55,0.22-5.1-0.21-7.53-1.03c-9.97-3.34-23.53,2.3-40.39,1.63
				c-18.9-0.76-39.31-17.76-40.06-18.9c-0.76-1.13-11.34-9.07-17.39,0c-6.05,9.07-3.4,18.9,4.16,54.8
				c7.56,35.91,55.94,86.17,55.94,86.17s5.57,6-11.15,9.54c-16.72,3.54-41.39,21.12-50.74,30.47c-9.35,9.35-8.65,15.45-17.29,20.27
				c-8.65,4.82-13.04,4.82-17.72,19.98c-1.7,5.52-3.4,16.02-8.08,19.13c-4.68,3.12-9.92,15.31,3.69,23.53
				c6.19,3.74,14.46,4.11,15.02,11.76c0.57,7.65,8.22,47.06,22.25,75.12s45.5,43.65,61.8,52.72s45.64,20.13,51.31,20.27
				c3.5,0.09,12.89-0.2,19.56-0.44c4.82-0.17,9.63,0.49,14.22,1.95l9.41,2.99c4.94,1.57,10.29,1.17,14.94-1.11l18.33-8.99
				c2.74-1.34,5.8-1.88,8.83-1.56l6.4,0.68c12.25,1.31,23.25-7.5,24.66-19.74l2.26-19.69c0.37-3.22,2.03-6.17,4.63-8.11
				c5.35-4.01,13.65-11.07,14.67-12.6c6.8-10.2,3.83-32.03,7.23-37.42c3.4-5.39,4.82-11.76,8.22-18.85
				c1.56-3.25,2.67-9.54,3.42-15.4c0.34-2.65,3.18-4.09,5.57-2.91c1.55,0.76,3.29,1.19,5.13,1.19c6.91,0,12.42-5.98,11.64-13.04
				C1660.51-987.69,1656.16-992.04,1650.78-992.63z M1527.9-1094.66l0.02-0.02c9.81-8.95,32.88-27.42,60.58-32.11
				c2.74-0.47,5,2.16,4.12,4.81c-3.18,9.65-11.09,28.99-24.81,34.87c-10.22,4.38-22.84,3.12-32.11,1.11
				c-1.07-0.23-1.23-1.69-0.23-2.16c10.91-5.09,23.19-13.35,30.12-18.26c-10.91,6.8-26.56,11.31-36.68,13.71
				C1527.78-1092.45,1527.04-1093.87,1527.9-1094.66z M1500.47-1134.15c0.28-3.33,3.47-5.58,6.72-4.81
				c3.07,0.73,6.71,1.89,9.33,3.64c2.2,1.46,3,4.32,1.93,6.74c-2.34,5.24-6.83,17.9-6.66,37.57c0.01,1.26-0.9,2.41-2.15,2.52
				c-0.97,0.08-1.84-0.4-2.3-1.17l-3.73-6.36c-1.55-2.65-2.47-5.62-2.69-8.68C1500.42-1111.65,1499.69-1124.76,1500.47-1134.15z
				 M1415.13-1158.93c-30.61-52.54-38.55-78.61-36.28-83.53c2.27-4.91,19.28,21.54,54.05,22.3c34.77,0.76,60.09,13.98,60.85,40.44
				c0.43,15.05-2.44,33.58-3.4,50.02c-0.14,2.43-2.98,3.68-4.88,2.16c-70.99-56.71-75.06-78.45-75.06-78.45
				c-0.49,17.43,39.32,67.08,59.37,92.61c2,2.55-0.92,6.02-3.78,4.47C1450.16-1117.47,1430.46-1132.62,1415.13-1158.93z
				 M1621.11-1004.35c-1.13,15.87-1.13,28.35-5.67,40.44s-7.94,32.5-13.23,41.57c-5.29,9.07-15.5,30.61-20.41,35.91
				c-4.91,5.29-45.35,42.71-89.57,46.11c-37.68,2.9-72.34-42.5-81.77-56c-0.95-1.36-3.05-0.9-3.36,0.72l-1.21,6.33
				c-0.59,3.06-4.36,4.2-6.53,1.97c-13.94-14.26-50.52-57.31-41.29-108.37c11.34-62.74,46.49-82.39,46.49-82.39
				s31.37-26.65,64.25-18.9c32.88,7.75,119.43,90.33,66.14,199.18c0,0,48.57-80.47,9.05-154.08c-2.14-3.98-4.97-7.52-8.01-10.86
				c-1.43-1.57-2.3-3.55-2.5-5.66c-0.23-2.43,1.11-4.74,3.31-5.79l2.2-1.05c1.32-0.63,2.75-0.95,4.21-0.95
				c7.39,0.01,30.95,0.06,34.45,0.38c4.16,0.38,21.92,1.51,28.72,22.3C1613.18-1032.69,1622.25-1020.22,1621.11-1004.35z"/>
			<circle class="st0" cx="1291.92" cy="-993.77" r="6.05"/>
			<circle class="st0" cx="1565.18" cy="-813.1" r="7.56"/>
			<circle class="st0" cx="1616.96" cy="-798.36" r="4.54"/>
			<circle class="st0" cx="1643.6" cy="-867.53" r="11.72"/>
		</g>
		<linearGradient id="SVGID_5_" gradientUnits="userSpaceOnUse" x1="1479.9932" y1="-881.4045" x2="1435.7046" y2="-1073.2391">
			<stop  offset="0.324" style="stop-color:#FFFFFF;stop-opacity:0"/>
			<stop  offset="0.4411" style="stop-color:#FDF9F7;stop-opacity:0.1732"/>
			<stop  offset="0.626" style="stop-color:#F6E9E0;stop-opacity:0.4467"/>
			<stop  offset="0.8542" style="stop-color:#EBCEBB;stop-opacity:0.7843"/>
			<stop  offset="1" style="stop-color:#E3BBA0"/>
		</linearGradient>
		<path class="st11" d="M1456.29-1075.51c-2.21-0.15-4.4-0.2-6.58-0.15c-0.01,0-0.02,0-0.03,0l0,0c-7.33,0.59-14.62,2.27-21.67,5.13
			c-43.73,17.67-62.39,73.57-41.68,124.85c15.92,39.39,50.43,64.59,85.39,66.18l0,0h0.01c33.92-11.55,60.04-46.89,62.99-90.3
			C1538.46-1024.99,1503.35-1072.31,1456.29-1075.51z"/>
		<linearGradient id="SVGID_6_" gradientUnits="userSpaceOnUse" x1="1599.8005" y1="-929.2894" x2="1567.4207" y2="-1069.542">
			<stop  offset="0.324" style="stop-color:#FFFFFF;stop-opacity:0"/>
			<stop  offset="0.4411" style="stop-color:#FDF9F7;stop-opacity:0.1732"/>
			<stop  offset="0.626" style="stop-color:#F6E9E0;stop-opacity:0.4467"/>
			<stop  offset="0.8542" style="stop-color:#EBCEBB;stop-opacity:0.7843"/>
			<stop  offset="1" style="stop-color:#E3BBA0"/>
		</linearGradient>
		<path class="st12" d="M1574.22-987.17c-0.6-2.82-1.32-5.61-2.16-8.36c-4.01-13.19-16.46-53.33-22.44-63.71
			c-7.18-12.47,33.54-8.79,39.59-0.09c5.73,8.24,40.3,56.51,4.38,126.81c-4.14,8.11-15.21,9.39-21.14,2.47l0,0
			c-1.32-1.54-1.9-3.59-1.57-5.6l0.73-4.48c0.93-5.72,3.8-16.66,3.52-22.45l0.66-5.67c-0.41-8.49,0.43-9.5-1.34-17.81
			L1574.22-987.17z"/>
	</g>
	<g>
		<polygon class="st4" points="1614.18,-348.69 1564.95,-327.01 1530.34,-321.47 1490.11,-335.08 1447.59,-358.89 1407.63,-394.77 
			1393.17,-456.1 1393.17,-504.31 1428.03,-565.82 1468.85,-585.19 1513.92,-595.35 1538.8,-575.31 1555.59,-567.52 1601.61,-571 
			1653.86,-559.96 1662.93,-535.77 1670.4,-480.59 1670.4,-447.33 1662.93,-427.77 1653.86,-399.71 1638.93,-376.75 		"/>
		<polygon class="st5" points="1517.66,-592.34 1489.26,-595.35 1445.89,-646.32 1423.78,-688.84 1415.28,-724.56 1419.92,-739.02 
			1443.34,-723.71 1473.11,-712.66 1511.37,-713.51 1530.34,-695.65 1541.57,-669.76 1538.8,-634.42 1530.34,-593.6 		"/>
		<polygon class="st5" points="1560.36,-571 1564.95,-581.7 1571.28,-595.35 1606.62,-613.68 1638.93,-620.81 1638.93,-613.68 
			1634.26,-595.35 1634.26,-578.29 1619.09,-569.79 1591.31,-565.82 1567.78,-568.09 		"/>
		<linearGradient id="SVGID_7_" gradientUnits="userSpaceOnUse" x1="1535.6154" y1="-634.6857" x2="1470.8795" y2="-706.5822">
			<stop  offset="0" style="stop-color:#006633"/>
			<stop  offset="0.0164" style="stop-color:#056937;stop-opacity:0.9831"/>
			<stop  offset="0.3768" style="stop-color:#6FA88B;stop-opacity:0.6123"/>
			<stop  offset="0.6663" style="stop-color:#BCD7CA;stop-opacity:0.3145"/>
			<stop  offset="0.8708" style="stop-color:#ECF4F0;stop-opacity:0.1042"/>
			<stop  offset="0.9721" style="stop-color:#FFFFFF;stop-opacity:0"/>
		</linearGradient>
		<path class="st13" d="M1469.63-676.44c0,0,38.11,42.18,54.44,50.28c1.28,0.64,2.82-0.09,3.13-1.49
			c1.97-8.88,4.25-45.53-7.04-55.61c-13.32-11.91-31.46-16.16-50.17-17.86C1451.28-702.83,1469.63-676.44,1469.63-676.44z"/>
		<linearGradient id="SVGID_8_" gradientUnits="userSpaceOnUse" x1="1584.9016" y1="-572.8427" x2="1622.3022" y2="-591.8992">
			<stop  offset="0" style="stop-color:#006633"/>
			<stop  offset="0.0164" style="stop-color:#056937;stop-opacity:0.9831"/>
			<stop  offset="0.3768" style="stop-color:#6FA88B;stop-opacity:0.6123"/>
			<stop  offset="0.6663" style="stop-color:#BCD7CA;stop-opacity:0.3145"/>
			<stop  offset="0.8708" style="stop-color:#ECF4F0;stop-opacity:0.1042"/>
			<stop  offset="0.9721" style="stop-color:#FFFFFF;stop-opacity:0"/>
		</linearGradient>
		<path class="st14" d="M1585.47-573.26c-1.6-0.27-1.95-2.42-0.52-3.18c6.19-3.27,18.85-10.38,24.93-16.88
			c8.22-8.79,12.81-1.84,10.8,2.83c-2.01,4.68-5.01,14.74-20.29,16.87C1593.01-572.59,1588.34-572.79,1585.47-573.26z"/>
		
			<linearGradient id="SVGID_9_" gradientUnits="userSpaceOnUse" x1="1582.9164" y1="-634.1949" x2="1620.1824" y2="-653.1829" gradientTransform="matrix(0.9997 0.026 -0.026 0.9997 -22.6414 8.1392)">
			<stop  offset="0" style="stop-color:#006633"/>
			<stop  offset="0.0164" style="stop-color:#056937;stop-opacity:0.9831"/>
			<stop  offset="0.3768" style="stop-color:#6FA88B;stop-opacity:0.6123"/>
			<stop  offset="0.6663" style="stop-color:#BCD7CA;stop-opacity:0.3145"/>
			<stop  offset="0.8708" style="stop-color:#ECF4F0;stop-opacity:0.1042"/>
			<stop  offset="0.9721" style="stop-color:#FFFFFF;stop-opacity:0"/>
		</linearGradient>
		<path class="st15" d="M1576.9-585.51c7.14-5.84,23.55-17.94,36.78-17.82c0,0-12.94,14.77-35.8,20.01
			C1576.65-583.04,1575.91-584.7,1576.9-585.51z"/>
		<polygon class="st9" points="1555.59,-567.52 1533.47,-583.29 1537.17,-610.89 1539.72,-629.6 1550.97,-632.15 1565.52,-622.8 
			1561.55,-577.73 		"/>
		<linearGradient id="SVGID_10_" gradientUnits="userSpaceOnUse" x1="1550.4419" y1="-622.6322" x2="1550.4419" y2="-583.2019">
			<stop  offset="0" style="stop-color:#7D4E24"/>
			<stop  offset="0.061" style="stop-color:#987352;stop-opacity:0.9373"/>
			<stop  offset="0.1254" style="stop-color:#B0947A;stop-opacity:0.871"/>
			<stop  offset="0.196" style="stop-color:#C5B19E;stop-opacity:0.7984"/>
			<stop  offset="0.2721" style="stop-color:#D7C9BC;stop-opacity:0.7201"/>
			<stop  offset="0.3553" style="stop-color:#E6DDD5;stop-opacity:0.6345"/>
			<stop  offset="0.4486" style="stop-color:#F1ECE8;stop-opacity:0.5385"/>
			<stop  offset="0.5577" style="stop-color:#F9F7F5;stop-opacity:0.4263"/>
			<stop  offset="0.6972" style="stop-color:#FEFDFD;stop-opacity:0.2828"/>
			<stop  offset="0.9721" style="stop-color:#FFFFFF;stop-opacity:0"/>
		</linearGradient>
		<path class="st16" d="M1548.4-584.16l-2.88-4.88c-0.36-0.62-0.56-1.32-0.58-2.04l-0.47-25.86c-0.01-0.4,0.06-0.8,0.19-1.18
			l1.12-3.19c0.37-1.05,1.52-1.58,2.56-1.19l6.6,2.51c1.09,0.42,1.69,1.6,1.38,2.73l-4.48,16.35c-0.05,0.19-0.09,0.39-0.1,0.59
			l-1.41,16.36c-0.07,0.77-1.06,1.04-1.51,0.41l-0.35-0.5C1548.45-584.09,1548.43-584.12,1548.4-584.16z"/>
		<g>
			<circle class="st2" cx="1530.34" cy="-752.62" r="8.46"/>
			<circle class="st2" cx="1575.25" cy="-673.73" r="3.97"/>
			<circle class="st2" cx="1690.9" cy="-559.96" r="5.86"/>
			<circle class="st2" cx="1375.69" cy="-555.81" r="11.72"/>
			<path class="st2" d="M1692.22-479.46c-0.06-0.01-0.13-0.01-0.19-0.02c-5.11-0.48-8.83-4.88-8.26-9.98
				c0.44-3.91,0.87-7.6,1.22-10.32c1.28-9.78-0.99-22.39-12.19-46.63c-11.2-24.24-20.13-27.35-25.8-28.77
				c-5.67-1.42-4.54-3.54-4.68-6.8c-0.14-3.26,10.77-36.14,11.48-38.41s-1.13-6.52-3.26-8.08s-9.92,0.85-26.93,2.27
				c-17.01,1.42-39.69,18-46.63,22.39c-6.94,4.39-7.94,1.7-8.93-1.28c-0.99-2.98,8.93-23.53,8.93-23.53s-0.43-7.8-8.79-6.66
				s-12.9-0.99-15.59-3.26c-2.69-2.27-2.41-15.87-5.39-32.31c-1.85-10.21-7.36-19.43-11.27-24.96c-2.14-3.02-3.19-6.71-2.8-10.39
				c0.5-4.75-0.4-10.84-3.36-13.41c-2.48-2.15-6.92-2.26-10.19-1.97c-2.55,0.22-5.1-0.21-7.53-1.03c-9.97-3.34-23.53,2.3-40.39,1.63
				c-18.9-0.76-39.31-17.76-40.06-18.9s-11.34-9.07-17.39,0s-3.4,18.9,4.16,54.8c7.56,35.91,55.94,86.17,55.94,86.17
				s5.57,6-11.15,9.54c-16.72,3.54-41.39,21.12-50.74,30.47c-9.35,9.35-8.65,15.45-17.29,20.27c-8.65,4.82-13.04,4.82-17.72,19.98
				c-1.7,5.52-3.4,16.02-8.08,19.13c-4.68,3.12-9.92,15.31,3.69,23.53c6.19,3.74,14.46,4.11,15.02,11.76
				c0.57,7.65,8.22,47.06,22.25,75.12s45.5,43.65,61.8,52.72s45.64,20.13,51.31,20.27c3.5,0.09,12.89-0.2,19.56-0.44
				c4.82-0.17,9.63,0.49,14.22,1.95l9.41,2.99c4.94,1.57,10.29,1.17,14.94-1.11l18.33-8.99c2.74-1.34,5.8-1.88,8.83-1.56l6.4,0.68
				c12.25,1.31,23.25-7.5,24.66-19.74l2.26-19.69c0.37-3.22,2.03-6.17,4.63-8.11c5.35-4.01,13.65-11.07,14.67-12.6
				c6.8-10.2,3.83-32.03,7.23-37.42c3.4-5.39,4.82-11.76,8.22-18.85c1.56-3.25,2.67-9.54,3.42-15.4c0.34-2.65,3.18-4.09,5.57-2.91
				c1.55,0.76,3.29,1.19,5.13,1.19c6.91,0,12.42-5.98,11.64-13.04C1701.95-474.51,1697.6-478.87,1692.22-479.46z M1569.34-581.49
				l0.02-0.02c9.81-8.95,32.88-27.42,60.58-32.11c2.74-0.47,5,2.16,4.12,4.81c-3.18,9.65-11.09,28.99-24.81,34.87
				c-10.22,4.38-22.84,3.12-32.11,1.11c-1.07-0.23-1.23-1.69-0.23-2.16c10.91-5.09,23.19-13.35,30.12-18.26
				c-10.91,6.8-26.56,11.31-36.68,13.71C1569.22-579.28,1568.48-580.7,1569.34-581.49z M1541.91-620.97
				c0.28-3.33,3.47-5.58,6.72-4.81c3.07,0.73,6.71,1.89,9.33,3.64c2.2,1.46,3,4.32,1.93,6.74c-2.34,5.24-6.83,17.9-6.66,37.57
				c0.01,1.26-0.9,2.41-2.15,2.52c-0.97,0.08-1.84-0.4-2.3-1.17l-3.73-6.36c-1.55-2.65-2.47-5.62-2.69-8.68
				C1541.86-598.47,1541.13-611.59,1541.91-620.97z M1456.57-645.76c-30.61-52.54-38.55-78.61-36.28-83.53s19.28,21.54,54.05,22.3
				c34.77,0.76,60.09,13.98,60.85,40.44c0.43,15.05-2.44,33.58-3.4,50.02c-0.14,2.43-2.98,3.68-4.88,2.16
				c-70.99-56.71-75.06-78.45-75.06-78.45c-0.49,17.43,39.32,67.08,59.37,92.61c2,2.55-0.92,6.02-3.78,4.47
				C1491.6-604.3,1471.9-619.45,1456.57-645.76z M1662.55-491.18c-1.13,15.87-1.13,28.35-5.67,40.44
				c-4.54,12.09-7.94,32.5-13.23,41.57s-15.5,30.61-20.41,35.91c-4.91,5.29-45.35,42.71-89.57,46.11c-37.68,2.9-72.34-42.5-81.77-56
				c-0.95-1.36-3.05-0.9-3.36,0.72l-1.21,6.33c-0.59,3.06-4.36,4.2-6.53,1.97c-13.94-14.26-50.52-57.31-41.29-108.37
				c11.34-62.74,46.49-82.39,46.49-82.39s31.37-26.65,64.25-18.9c32.88,7.75,119.43,90.33,66.14,199.18c0,0,48.57-80.47,9.05-154.08
				c-2.14-3.98-4.97-7.52-8.01-10.86c-1.43-1.57-2.3-3.55-2.5-5.66c-0.23-2.43,1.11-4.74,3.31-5.79l2.2-1.05
				c1.32-0.63,2.75-0.95,4.21-0.95c7.39,0.01,30.95,0.06,34.45,0.38c4.16,0.38,21.92,1.51,28.72,22.3S1663.69-507.05,1662.55-491.18
				z"/>
			<circle class="st2" cx="1333.36" cy="-480.59" r="6.05"/>
			<circle class="st2" cx="1606.62" cy="-299.93" r="7.56"/>
			<circle class="st2" cx="1658.4" cy="-285.19" r="4.54"/>
			<circle class="st2" cx="1685.04" cy="-354.36" r="11.72"/>
		</g>
		<linearGradient id="SVGID_11_" gradientUnits="userSpaceOnUse" x1="1521.4344" y1="-368.2315" x2="1477.1459" y2="-560.0661">
			<stop  offset="0.324" style="stop-color:#FFFFFF;stop-opacity:0"/>
			<stop  offset="0.4411" style="stop-color:#FDF9F7;stop-opacity:0.1732"/>
			<stop  offset="0.626" style="stop-color:#F6E9E0;stop-opacity:0.4467"/>
			<stop  offset="0.8542" style="stop-color:#EBCEBB;stop-opacity:0.7843"/>
			<stop  offset="1" style="stop-color:#E3BBA0"/>
		</linearGradient>
		<path class="st17" d="M1497.74-562.33c-2.21-0.15-4.4-0.2-6.58-0.15c-0.01,0-0.02,0-0.03,0l0,0c-7.33,0.59-14.62,2.27-21.67,5.13
			c-43.73,17.67-62.39,73.57-41.68,124.85c15.92,39.39,50.43,64.59,85.39,66.18l0,0h0.01c33.92-11.55,60.04-46.89,62.99-90.3
			C1579.91-511.81,1544.8-559.13,1497.74-562.33z"/>
		<linearGradient id="SVGID_12_" gradientUnits="userSpaceOnUse" x1="1641.2418" y1="-416.1164" x2="1608.8619" y2="-556.369">
			<stop  offset="0.324" style="stop-color:#FFFFFF;stop-opacity:0"/>
			<stop  offset="0.4411" style="stop-color:#FDF9F7;stop-opacity:0.1732"/>
			<stop  offset="0.626" style="stop-color:#F6E9E0;stop-opacity:0.4467"/>
			<stop  offset="0.8542" style="stop-color:#EBCEBB;stop-opacity:0.7843"/>
			<stop  offset="1" style="stop-color:#E3BBA0"/>
		</linearGradient>
		<path class="st18" d="M1615.66-473.99c-0.6-2.82-1.32-5.61-2.16-8.36c-4.02-13.19-16.46-53.33-22.44-63.71
			c-7.18-12.47,33.54-8.79,39.59-0.09c5.73,8.24,40.3,56.51,4.38,126.81c-4.14,8.11-15.21,9.39-21.14,2.47l0,0
			c-1.32-1.54-1.9-3.59-1.57-5.6l0.73-4.48c0.93-5.72,3.8-16.66,3.52-22.45l0.66-5.67c-0.41-8.49,0.43-9.5-1.34-17.81
			L1615.66-473.99z"/>
	</g>
	<g>
		<g>
			<polygon class="st4" points="2068.31,-937.08 2029.04,-919.79 2001.43,-915.37 1969.35,-926.23 1935.43,-945.22 1903.55,-973.84 
				1892.01,-1022.76 1892.01,-1061.22 1919.83,-1110.29 1952.39,-1125.74 1988.34,-1133.84 2008.18,-1117.85 2021.58,-1111.64 
				2058.29,-1114.42 2099.97,-1105.61 2107.2,-1086.31 2113.16,-1042.3 2113.16,-1015.77 2107.2,-1000.17 2099.97,-977.78 
				2088.06,-959.47 			"/>
			<polygon class="st5" points="1991.32,-1131.44 1968.67,-1133.84 1934.07,-1174.51 1916.43,-1208.42 1909.65,-1236.91 
				1913.36,-1248.45 1932.04,-1236.24 1955.78,-1227.42 1986.31,-1228.1 2001.43,-1213.85 2010.39,-1193.2 2008.18,-1165.01 
				2001.43,-1132.45 			"/>
			<polygon class="st5" points="2025.38,-1114.42 2029.04,-1122.95 2034.09,-1133.84 2062.28,-1148.46 2088.06,-1154.16 
				2088.06,-1148.46 2084.33,-1133.84 2084.33,-1120.24 2072.23,-1113.45 2050.07,-1110.29 2031.3,-1112.1 			"/>
			<linearGradient id="SVGID_13_" gradientUnits="userSpaceOnUse" x1="2005.6432" y1="-1165.2212" x2="1954.0033" y2="-1222.573">
				<stop  offset="0" style="stop-color:#006633"/>
				<stop  offset="0.0164" style="stop-color:#056937;stop-opacity:0.9831"/>
				<stop  offset="0.3768" style="stop-color:#6FA88B;stop-opacity:0.6123"/>
				<stop  offset="0.6663" style="stop-color:#BCD7CA;stop-opacity:0.3145"/>
				<stop  offset="0.8708" style="stop-color:#ECF4F0;stop-opacity:0.1042"/>
				<stop  offset="0.9721" style="stop-color:#FFFFFF;stop-opacity:0"/>
			</linearGradient>
			<path class="st19" d="M1953-1198.53c0,0,30.4,33.64,43.43,40.11c1.02,0.51,2.25-0.07,2.5-1.19c1.58-7.08,3.39-36.32-5.61-44.36
				c-10.63-9.5-25.1-12.89-40.02-14.25C1938.37-1219.58,1953-1198.53,1953-1198.53z"/>
			<linearGradient id="SVGID_14_" gradientUnits="userSpaceOnUse" x1="2044.9589" y1="-1115.8889" x2="2074.7935" y2="-1131.0905">
				<stop  offset="0" style="stop-color:#006633"/>
				<stop  offset="0.0164" style="stop-color:#056937;stop-opacity:0.9831"/>
				<stop  offset="0.3768" style="stop-color:#6FA88B;stop-opacity:0.6123"/>
				<stop  offset="0.6663" style="stop-color:#BCD7CA;stop-opacity:0.3145"/>
				<stop  offset="0.8708" style="stop-color:#ECF4F0;stop-opacity:0.1042"/>
				<stop  offset="0.9721" style="stop-color:#FFFFFF;stop-opacity:0"/>
			</linearGradient>
			<path class="st20" d="M2045.41-1116.22c-1.28-0.21-1.56-1.93-0.41-2.53c4.94-2.61,15.04-8.28,19.88-13.47
				c6.56-7.01,10.22-1.47,8.61,2.26c-1.6,3.73-4,11.76-16.19,13.45C2051.43-1115.69,2047.7-1115.84,2045.41-1116.22z"/>
			
				<linearGradient id="SVGID_15_" gradientUnits="userSpaceOnUse" x1="2030.5314" y1="-1186.6514" x2="2060.2585" y2="-1201.7981" gradientTransform="matrix(0.9997 0.026 -0.026 0.9997 -22.6414 8.1392)">
				<stop  offset="0" style="stop-color:#006633"/>
				<stop  offset="0.0164" style="stop-color:#056937;stop-opacity:0.9831"/>
				<stop  offset="0.3768" style="stop-color:#6FA88B;stop-opacity:0.6123"/>
				<stop  offset="0.6663" style="stop-color:#BCD7CA;stop-opacity:0.3145"/>
				<stop  offset="0.8708" style="stop-color:#ECF4F0;stop-opacity:0.1042"/>
				<stop  offset="0.9721" style="stop-color:#FFFFFF;stop-opacity:0"/>
			</linearGradient>
			<path class="st21" d="M2038.57-1126c5.7-4.66,18.78-14.31,29.34-14.22c0,0-10.32,11.78-28.56,15.97
				C2038.38-1124.03,2037.78-1125.35,2038.57-1126z"/>
			<polygon class="st9" points="2021.58,-1111.64 2003.94,-1124.23 2006.88,-1146.24 2008.92,-1161.16 2017.89,-1163.2 
				2029.49,-1155.74 2026.33,-1119.78 			"/>
			<linearGradient id="SVGID_16_" gradientUnits="userSpaceOnUse" x1="2017.4703" y1="-1155.6061" x2="2017.4703" y2="-1124.1525">
				<stop  offset="0" style="stop-color:#7D4E24"/>
				<stop  offset="0.061" style="stop-color:#987352;stop-opacity:0.9373"/>
				<stop  offset="0.1254" style="stop-color:#B0947A;stop-opacity:0.871"/>
				<stop  offset="0.196" style="stop-color:#C5B19E;stop-opacity:0.7984"/>
				<stop  offset="0.2721" style="stop-color:#D7C9BC;stop-opacity:0.7201"/>
				<stop  offset="0.3553" style="stop-color:#E6DDD5;stop-opacity:0.6345"/>
				<stop  offset="0.4486" style="stop-color:#F1ECE8;stop-opacity:0.5385"/>
				<stop  offset="0.5577" style="stop-color:#F9F7F5;stop-opacity:0.4263"/>
				<stop  offset="0.6972" style="stop-color:#FEFDFD;stop-opacity:0.2828"/>
				<stop  offset="0.9721" style="stop-color:#FFFFFF;stop-opacity:0"/>
			</linearGradient>
			<path class="st22" d="M2015.84-1124.92l-2.3-3.89c-0.29-0.49-0.45-1.05-0.46-1.63l-0.37-20.63c-0.01-0.32,0.05-0.64,0.15-0.94
				l0.89-2.54c0.29-0.83,1.21-1.26,2.04-0.95l5.26,2.01c0.87,0.33,1.35,1.27,1.1,2.18l-3.57,13.05c-0.04,0.15-0.07,0.31-0.08,0.47
				l-1.12,13.05c-0.05,0.62-0.85,0.83-1.2,0.33l-0.28-0.4C2015.88-1124.86,2015.86-1124.89,2015.84-1124.92z"/>
			<g>
				<circle class="st0" cx="2001.43" cy="-1259.3" r="6.75"/>
				<circle class="st0" cx="2037.26" cy="-1196.36" r="3.17"/>
				<circle class="st0" cx="2129.51" cy="-1105.61" r="4.67"/>
				<circle class="st0" cx="1878.07" cy="-1102.3" r="9.35"/>
				<path class="st0" d="M2130.57-1041.4c-0.05-0.01-0.1-0.01-0.15-0.02c-4.07-0.39-7.05-3.89-6.59-7.96
					c0.35-3.12,0.69-6.06,0.98-8.23c1.02-7.8-0.79-17.86-9.72-37.2c-8.93-19.33-16.05-21.82-20.58-22.95
					c-4.52-1.13-3.62-2.83-3.73-5.43c-0.11-2.6,8.59-28.83,9.16-30.64c0.57-1.81-0.9-5.2-2.6-6.44s-7.91,0.68-21.48,1.81
					s-31.66,14.36-37.2,17.86c-5.54,3.5-6.33,1.36-7.12-1.02s7.12-18.77,7.12-18.77s-0.34-6.22-7.01-5.31
					c-6.67,0.9-10.29-0.79-12.44-2.6c-2.15-1.81-1.92-12.66-4.3-25.78c-1.47-8.14-5.87-15.5-8.99-19.91
					c-1.7-2.41-2.54-5.35-2.23-8.29c0.4-3.79-0.32-8.64-2.68-10.69c-1.98-1.71-5.52-1.8-8.13-1.57c-2.04,0.18-4.07-0.17-6.01-0.82
					c-7.96-2.67-18.77,1.84-32.22,1.3c-15.07-0.6-31.36-14.17-31.96-15.07c-0.6-0.9-9.04-7.24-13.87,0s-2.71,15.07,3.32,43.72
					c6.03,28.64,44.62,68.74,44.62,68.74s4.45,4.79-8.89,7.61c-13.34,2.83-33.01,16.85-40.48,24.31
					c-7.46,7.46-6.9,12.32-13.79,16.17c-6.9,3.84-10.4,3.84-14.13,15.94c-1.36,4.41-2.71,12.78-6.44,15.26s-7.91,12.21,2.94,18.77
					c4.93,2.98,11.53,3.28,11.98,9.38c0.45,6.11,6.56,37.54,17.75,59.92c11.19,22.39,36.29,34.82,49.29,42.06
					c13,7.24,36.41,16.05,40.93,16.17c2.79,0.07,10.28-0.16,15.6-0.35c3.84-0.14,7.68,0.39,11.34,1.56l7.51,2.38
					c3.94,1.25,8.21,0.93,11.92-0.89l14.62-7.17c2.18-1.07,4.63-1.5,7.04-1.24l5.11,0.55c9.77,1.04,18.55-5.99,19.67-15.75l1.8-15.7
					c0.3-2.57,1.62-4.92,3.69-6.47c4.27-3.2,10.89-8.83,11.7-10.05c5.43-8.14,3.05-25.55,5.77-29.85c2.71-4.3,3.84-9.38,6.56-15.04
					c1.24-2.59,2.13-7.61,2.73-12.29c0.27-2.11,2.53-3.26,4.44-2.32c1.24,0.61,2.62,0.95,4.09,0.95c5.51,0,9.91-4.77,9.29-10.4
					C2138.33-1037.45,2134.86-1040.92,2130.57-1041.4z M2032.54-1122.78l0.02-0.02c7.83-7.14,26.23-21.87,48.33-25.62
					c2.19-0.37,3.99,1.73,3.29,3.83c-2.54,7.7-8.85,23.13-19.79,27.82c-8.15,3.49-18.22,2.49-25.61,0.89
					c-0.86-0.19-0.98-1.35-0.18-1.72c8.7-4.06,18.5-10.65,24.02-14.57c-8.7,5.43-21.19,9.02-29.26,10.94
					C2032.45-1121.02,2031.86-1122.15,2032.54-1122.78z M2010.67-1154.28c0.22-2.65,2.77-4.45,5.36-3.83
					c2.45,0.59,5.36,1.51,7.44,2.9c1.75,1.17,2.4,3.45,1.54,5.37c-1.87,4.18-5.45,14.28-5.31,29.97c0.01,1-0.71,1.92-1.71,2.01
					c-0.78,0.07-1.47-0.32-1.83-0.94l-2.97-5.07c-1.24-2.11-1.97-4.48-2.15-6.93C2010.62-1136.33,2010.04-1146.8,2010.67-1154.28z
					 M1942.59-1174.05c-24.42-41.91-30.75-62.71-28.94-66.63s15.38,17.19,43.11,17.79c27.74,0.6,47.94,11.16,48.54,32.26
					c0.34,12.01-1.95,26.79-2.71,39.9c-0.11,1.94-2.38,2.93-3.89,1.72c-56.63-45.24-59.88-62.58-59.88-62.58
					c-0.39,13.91,31.37,53.51,47.36,73.88c1.6,2.04-0.74,4.8-3.01,3.57C1970.53-1140.98,1954.82-1153.06,1942.59-1174.05z
					 M2106.9-1050.74c-0.9,12.66-0.9,22.61-4.52,32.26c-3.62,9.65-6.33,25.93-10.55,33.16s-12.36,24.42-16.28,28.64
					c-3.92,4.22-36.18,34.07-71.45,36.78c-30.06,2.31-57.71-33.91-65.23-44.67c-0.76-1.08-2.43-0.72-2.68,0.58l-0.97,5.05
					c-0.47,2.44-3.48,3.35-5.21,1.57c-11.12-11.38-40.3-45.72-32.94-86.44c9.04-50.05,37.08-65.73,37.08-65.73
					s25.02-21.26,51.25-15.07c26.23,6.18,95.27,72.06,52.76,158.89c0,0,38.75-64.19,7.22-122.91c-1.71-3.18-3.97-5.99-6.39-8.66
					c-1.14-1.25-1.84-2.84-2-4.52c-0.18-1.94,0.89-3.78,2.64-4.62l1.76-0.84c1.05-0.5,2.19-0.76,3.36-0.76
					c5.89,0.01,24.69,0.05,27.48,0.3c3.32,0.3,17.49,1.21,22.91,17.79C2100.57-1073.35,2107.81-1063.41,2106.9-1050.74z"/>
				<circle class="st0" cx="1844.3" cy="-1042.3" r="4.82"/>
				<circle class="st0" cx="1862.69" cy="-949.85" r="6.03"/>
				<circle class="st0" cx="1954.31" cy="-838.76" r="6.03"/>
				<circle class="st0" cx="2116.78" cy="-883.36" r="3.62"/>
				<circle class="st0" cx="2158.01" cy="-949.85" r="9.35"/>
			</g>
			<linearGradient id="SVGID_17_" gradientUnits="userSpaceOnUse" x1="1994.3311" y1="-952.6704" x2="1959.002" y2="-1105.697">
				<stop  offset="0.324" style="stop-color:#FFFFFF;stop-opacity:0"/>
				<stop  offset="0.4411" style="stop-color:#FDF9F7;stop-opacity:0.1732"/>
				<stop  offset="0.626" style="stop-color:#F6E9E0;stop-opacity:0.4467"/>
				<stop  offset="0.8542" style="stop-color:#EBCEBB;stop-opacity:0.7843"/>
				<stop  offset="1" style="stop-color:#E3BBA0"/>
			</linearGradient>
			<path class="st23" d="M1975.43-1107.51c-1.76-0.12-3.51-0.16-5.25-0.12c-0.01,0-0.02,0-0.02,0l0,0
				c-5.85,0.47-11.66,1.81-17.29,4.09c-34.88,14.1-49.77,58.69-33.25,99.59c12.7,31.42,40.23,51.53,68.12,52.79v0h0.01
				c27.06-9.21,47.89-37.4,50.25-72.03C2040.97-1067.21,2012.97-1104.95,1975.43-1107.51z"/>
			<linearGradient id="SVGID_18_" gradientUnits="userSpaceOnUse" x1="2089.9014" y1="-990.8682" x2="2064.072" y2="-1102.7478">
				<stop  offset="0.324" style="stop-color:#FFFFFF;stop-opacity:0"/>
				<stop  offset="0.4411" style="stop-color:#FDF9F7;stop-opacity:0.1732"/>
				<stop  offset="0.626" style="stop-color:#F6E9E0;stop-opacity:0.4467"/>
				<stop  offset="0.8542" style="stop-color:#EBCEBB;stop-opacity:0.7843"/>
				<stop  offset="1" style="stop-color:#E3BBA0"/>
			</linearGradient>
			<path class="st24" d="M2069.49-1037.04c-0.48-2.25-1.05-4.47-1.72-6.67c-3.2-10.53-13.13-42.54-17.9-50.82
				c-5.73-9.95,26.76-7.01,31.58-0.08c4.57,6.57,32.15,45.08,3.49,101.16c-3.3,6.47-12.13,7.49-16.86,1.97l0,0
				c-1.06-1.23-1.51-2.87-1.25-4.47l0.58-3.57c0.74-4.56,3.03-13.29,2.81-17.91l0.53-4.52c-0.33-6.77,0.34-7.58-1.07-14.21
				L2069.49-1037.04z"/>
		</g>
		<g>
			<g>
				<g>
					<linearGradient id="SVGID_19_" gradientUnits="userSpaceOnUse" x1="1878.5841" y1="-948.3669" x2="1878.5841" y2="-889.0455">
						<stop  offset="0" style="stop-color:#ECBEA9"/>
						<stop  offset="1" style="stop-color:#FF9282"/>
					</linearGradient>
					<path class="st25" d="M1879.87-948.37c10.64,0,17.93,3.25,21.88,9.74c0.47,1.07,0.7,2.15,0.7,3.25c0,0.74-0.11,1.48-0.33,2.24
						c-0.65,3.26-2.6,5.21-5.86,5.86c-3.73,0-6.15-0.72-7.28-2.16c-1.13-1.44-2.3-2.35-3.51-2.74c-1.22-0.39-2.82-0.59-4.8-0.59
						h-1.17c-7.09,0.69-11,2.39-11.71,5.09c2.14,0.71,9.17,1.88,21.08,3.51c11.71,2.52,17.57,7.59,17.57,15.22
						c0,9.95-8.72,16.45-26.16,19.51c-2.28,0.27-4.23,0.4-5.86,0.4c-10.66,0-15.99-3.12-15.99-9.37c0.94-4.95,3.28-7.43,7.03-7.43
						h1.54c3.39,0.78,5.61,1.17,6.66,1.17h2.71c7.81-0.94,11.71-2.11,11.71-3.51c-1.49-0.96-9.3-2.26-23.42-3.91
						c-3.55-0.49-6.91-2.25-10.1-5.29c-2.54-2.39-3.81-5.04-3.81-7.96c0-0.76,0.09-1.54,0.27-2.34
						C1853.12-940.07,1862.74-946.96,1879.87-948.37z"/>
					<path d="M1879.87-948.37c10.64,0,17.93,3.25,21.88,9.74c0.47,1.07,0.7,2.15,0.7,3.25c0,0.74-0.11,1.48-0.33,2.24
						c-0.65,3.26-2.6,5.21-5.86,5.86c-3.73,0-6.15-0.72-7.28-2.16c-1.13-1.44-2.3-2.35-3.51-2.74c-1.22-0.39-2.82-0.59-4.8-0.59
						h-1.17c-7.09,0.69-11,2.39-11.71,5.09c2.14,0.71,9.17,1.88,21.08,3.51c11.71,2.52,17.57,7.59,17.57,15.22
						c0,9.95-8.72,16.45-26.16,19.51c-2.28,0.27-4.23,0.4-5.86,0.4c-10.66,0-15.99-3.12-15.99-9.37c0.94-4.95,3.28-7.43,7.03-7.43
						h1.54c3.39,0.78,5.61,1.17,6.66,1.17h2.71c7.81-0.94,11.71-2.11,11.71-3.51c-1.49-0.96-9.3-2.26-23.42-3.91
						c-3.55-0.49-6.91-2.25-10.1-5.29c-2.54-2.39-3.81-5.04-3.81-7.96c0-0.76,0.09-1.54,0.27-2.34
						C1853.12-940.07,1862.74-946.96,1879.87-948.37L1879.87-948.37z M1879.87-955.22h-0.28l-0.28,0.02
						c-25.49,2.09-33.14,15.36-35.04,26.19c-0.26,1.23-0.39,2.46-0.39,3.65c0,3.35,1.04,8.32,5.98,12.96
						c1.79,1.7,3.66,3.11,5.6,4.22c-1.65,1.92-3.04,4.63-3.77,8.48l-0.12,0.63v0.64c0,4.88,2.23,16.22,22.85,16.22
						c1.91,0,4.09-0.15,6.66-0.45l0.19-0.02l0.19-0.03c26.31-4.61,31.83-16.82,31.83-26.26c0-5.01-1.67-11.01-8-15.73
						c1.71-1.81,2.91-4.12,3.49-6.83c0.35-1.29,0.53-2.59,0.53-3.87c0-2.04-0.43-4.05-1.28-5.99l-0.18-0.42l-0.24-0.39
						C1902.35-950.84,1893.02-955.22,1879.87-955.22L1879.87-955.22z"/>
				</g>
				<g>
					<linearGradient id="SVGID_20_" gradientUnits="userSpaceOnUse" x1="1944.6139" y1="-945.7237" x2="1944.6139" y2="-889.0455">
						<stop  offset="0" style="stop-color:#ECBEA9"/>
						<stop  offset="1" style="stop-color:#FF9282"/>
					</linearGradient>
					<path class="st26" d="M1960.21-945.66c5.24,0,11.09,12.1,17.53,36.3c1.14,3.37,1.71,6.25,1.71,8.63c0,1.58-0.23,2.96-0.7,4.12
						c-1.25,2.94-3.4,4.42-6.46,4.42c-4.33,0-7.07-2.37-8.23-7.11c-1.16-4.74-3.49-12.39-6.99-22.94
						c-5.11,8.16-9.78,12.25-14.02,12.25h-0.13c-4.3-0.09-8.17-3.39-11.61-9.9l-4.68,17.57c-1.67,8.86-4.92,13.28-9.74,13.28
						c-2.5,0-4.46-1.1-5.89-3.31c-0.8-1.18-1.2-2.63-1.2-4.35c0-1.43,0.28-3.04,0.84-4.85c2.88-14.14,5.88-26.23,9-36.27
						c1.99-4.68,5.1-7.03,9.33-7.03c4.08,0,8.9,4.42,14.45,13.25c0.67,0,2.39-2.46,5.15-7.39c2.52-4.48,5.96-6.73,10.31-6.73
						C1959.31-945.72,1959.76-945.7,1960.21-945.66z"/>
					<path d="M1958.87-945.72c0.45,0,0.89,0.02,1.34,0.07c5.24,0,11.09,12.1,17.53,36.3c1.14,3.37,1.71,6.25,1.71,8.63
						c0,1.58-0.23,2.96-0.7,4.12c-1.25,2.94-3.4,4.42-6.46,4.42c-4.33,0-7.07-2.37-8.23-7.11c-1.16-4.74-3.49-12.39-6.99-22.94
						c-5.11,8.16-9.78,12.25-14.02,12.25h-0.13c-4.3-0.09-8.17-3.39-11.61-9.9l-4.68,17.57c-1.67,8.86-4.92,13.28-9.74,13.28
						c-2.5,0-4.46-1.1-5.89-3.31c-0.8-1.18-1.2-2.63-1.2-4.35c0-1.43,0.28-3.04,0.84-4.85c2.88-14.14,5.88-26.23,9-36.27
						c1.99-4.68,5.1-7.03,9.33-7.03c4.08,0,8.9,4.42,14.45,13.25c0.67,0,2.39-2.46,5.15-7.39
						C1951.08-943.48,1954.52-945.72,1958.87-945.72L1958.87-945.72z M1903.17-899.7v0.01c-0.03,0.19-0.06,0.38-0.08,0.56
						c-0.1,0.83-0.16,1.63-0.16,2.42c0,2.01,0.34,3.87,1.01,5.56c0.35,0.91,0.81,1.77,1.35,2.58c2.68,4.11,6.81,6.37,11.6,6.37
						c5.85,0,13.43-3.23,16.41-18.6l1.29-4.84c2.54,1.61,5.26,2.44,8.18,2.5h0.08h0.07h0.14c4.37,0,8.17-2.04,11.39-4.9
						c1.36,4.36,2.34,7.83,2.97,10.37c1.92,7.83,7.34,12.33,14.88,12.33c3.49,0,6.58-1.14,8.98-3.25c1.59-1.37,2.88-3.17,3.79-5.34
						l0.02-0.05l0.02-0.06c0.08-0.21,0.16-0.41,0.23-0.62c0.07-0.16,0.11-0.33,0.17-0.5c0.54-1.69,0.8-3.56,0.8-5.56
						c0-1.05-0.07-2.14-0.23-3.27c-0.03-0.31-0.08-0.63-0.14-0.96v-0.01c-0.32-1.96-0.86-4.08-1.62-6.37
						c-1.15-4.33-2.3-8.28-3.41-11.85c-0.06-0.19-0.11-0.39-0.18-0.58v-0.01c-0.4-1.28-0.8-2.5-1.2-3.68
						c-0.14-0.39-0.26-0.78-0.4-1.15c-1.23-3.57-2.47-6.69-3.71-9.41c-4.55-9.94-9.22-14.3-14.81-14.48
						c-0.57-0.05-1.15-0.08-1.72-0.08c-4.58,0-10.92,1.62-15.61,9.11c-4.83-5.58-9.48-8.23-14.3-8.23c-4.07,0-11.51,1.45-15.65,11.2
						l-0.13,0.31l-0.1,0.33c-1.66,5.32-3.29,11.26-4.9,17.75c-0.7,2.83-1.38,5.77-2.07,8.83c0,0,0.01,0,0,0.01
						c-0.06,0.24-0.11,0.48-0.16,0.73L1903.17-899.7z"/>
				</g>
				<g>
					<linearGradient id="SVGID_21_" gradientUnits="userSpaceOnUse" x1="2070.3499" y1="-945.2552" x2="2070.3499" y2="-890.2166">
						<stop  offset="0" style="stop-color:#ECBEA9"/>
						<stop  offset="1" style="stop-color:#FF9282"/>
					</linearGradient>
					<path class="st27" d="M2075.03-945.26c8.5,0,15,4.43,19.51,13.28v2.34c0,4.24-2.73,6.58-8.2,7.03c-2.28,0-5.13-2.09-8.57-6.26
						c-0.87-0.51-1.65-0.77-2.34-0.77h-1.57c-5.82,0-9.86,3.12-12.11,9.37l-0.37,2.31v2.34c1.25,6.78,4.1,10.17,8.57,10.17
						c3.03,0,7.99-2.09,14.86-6.26c0.42-0.27,1.07-0.4,1.94-0.4h1.17c4.68,0.91,7.03,3.26,7.03,7.03v1.17
						c0,5.22-6.5,9.65-19.51,13.28c-1.36,0.27-2.92,0.4-4.68,0.4h-2.34c-9.44,0-16.46-5.73-21.08-17.2
						c-1.05-3.7-1.57-6.83-1.57-9.37c0-11.22,5.33-19.8,15.99-25.73C2065.77-944.34,2070.19-945.26,2075.03-945.26z"/>
					<path d="M2075.03-945.26c8.5,0,15,4.43,19.51,13.28v2.34c0,4.24-2.73,6.58-8.2,7.03c-2.28,0-5.13-2.09-8.57-6.26
						c-0.87-0.51-1.65-0.77-2.34-0.77h-1.57c-5.82,0-9.86,3.12-12.11,9.37l-0.37,2.31v2.34c1.25,6.78,4.1,10.17,8.57,10.17
						c3.03,0,7.99-2.09,14.86-6.26c0.42-0.27,1.07-0.4,1.94-0.4h1.17c4.68,0.91,7.03,3.26,7.03,7.03v1.17
						c0,5.22-6.5,9.65-19.51,13.28c-1.36,0.27-2.92,0.4-4.68,0.4h-2.34c-9.44,0-16.46-5.73-21.08-17.2
						c-1.05-3.7-1.57-6.83-1.57-9.37c0-11.22,5.33-19.8,15.99-25.73C2065.77-944.34,2070.19-945.26,2075.03-945.26L2075.03-945.26z
						 M2075.03-952.11c-5.8,0-11.23,1.13-16.12,3.36l-0.25,0.11l-0.24,0.13c-12.77,7.1-19.51,18.07-19.51,31.72
						c0,3.21,0.6,6.88,1.83,11.24l0.1,0.35l0.14,0.34c7.15,17.76,18.87,21.49,27.43,21.49h2.34c2.2,0,4.22-0.18,6.01-0.53l0.26-0.05
						l0.26-0.07c10.52-2.94,24.51-8.2,24.51-19.88v-1.17c0-5.6-2.95-9.99-8.08-12.34c7.02-3.19,7.68-9.85,7.68-12.22v-2.34v-1.64
						l-0.75-1.46C2093.49-949.15,2082.77-952.11,2075.03-952.11L2075.03-952.11z M2068.41-918.49c1.58-3.94,3.56-4.29,5.46-4.29
						h0.11c1.84,2.05,4.11,4.18,6.74,5.55c-8.09,4.85-10.65,4.94-10.76,4.94c-0.07,0-0.12,0-0.15-0.01
						c-0.17-0.17-0.95-1.07-1.56-3.98v-1.14L2068.41-918.49L2068.41-918.49z"/>
				</g>
				<g>
					<linearGradient id="SVGID_22_" gradientUnits="userSpaceOnUse" x1="2126.4089" y1="-944.8538" x2="2126.4089" y2="-889.447">
						<stop  offset="0" style="stop-color:#ECBEA9"/>
						<stop  offset="1" style="stop-color:#FF9282"/>
					</linearGradient>
					<path class="st28" d="M2147.5-944.85c4.68,1.07,7.03,3.41,7.03,7.03v1.17c-1.29,8.61-1.94,15.5-1.94,20.68v2.71
						c0,3.37,0.2,6.81,0.6,10.34c0.13,1.29,0.2,2.49,0.2,3.58c0,1.94-0.21,3.61-0.64,5.02c-0.69,2.21-3.09,3.31-7.19,3.31
						c-4.57,0-7.2-1.64-7.88-4.92c-0.68-3.28-1.02-7.36-1.02-12.25c-3.3-0.36-6.52-0.54-9.67-0.54c-3.12,0-6.18,0.18-9.17,0.54
						c0,2.25,0.39,5.9,1.17,10.94v0.77c0,4.06-2.6,6.4-7.8,7.03c-5.46-0.94-8.2-4.45-8.2-10.54v-7.13h-0.23
						c-2.59,0-4.06-2.3-4.42-6.89c-0.04-0.45-0.07-0.89-0.07-1.34c0-3.95,1.48-6.52,4.45-7.73c0.49-9.3,1.51-14.88,3.04-16.73
						c1.16-1.43,2.88-2.14,5.15-2.14c0.69,0,1.43,0.07,2.21,0.2c3.48,0,5.7,2.34,6.66,7.03v1.17c-1.05,4.39-1.65,7.72-1.81,9.97
						c3.37-0.29,6.52-0.43,9.47-0.43c3.46,0,6.6,0.2,9.44,0.6l1.64-11.31C2139.47-941.47,2142.46-944.85,2147.5-944.85z"/>
					<path d="M2147.5-944.85c4.68,1.07,7.03,3.41,7.03,7.03v1.17c-1.29,8.61-1.94,15.5-1.94,20.68v2.71c0,3.37,0.2,6.81,0.6,10.34
						c0.13,1.29,0.2,2.49,0.2,3.58c0,1.94-0.21,3.61-0.64,5.02c-0.69,2.21-3.09,3.31-7.19,3.31c-4.57,0-7.2-1.64-7.88-4.92
						c-0.68-3.28-1.02-7.36-1.02-12.25c-3.3-0.36-6.52-0.54-9.67-0.54c-3.12,0-6.18,0.18-9.17,0.54c0,2.25,0.39,5.9,1.17,10.94v0.77
						c0,4.06-2.6,6.4-7.8,7.03c-5.46-0.94-8.2-4.45-8.2-10.54v-7.13h-0.23c-2.59,0-4.06-2.3-4.42-6.89
						c-0.04-0.45-0.07-0.89-0.07-1.34c0-3.95,1.48-6.52,4.45-7.73c0.49-9.3,1.51-14.88,3.04-16.73c1.16-1.43,2.88-2.14,5.15-2.14
						c0.69,0,1.43,0.07,2.21,0.2c3.48,0,5.7,2.34,6.66,7.03v1.17c-1.05,4.39-1.65,7.72-1.81,9.97c3.37-0.29,6.52-0.43,9.47-0.43
						c3.46,0,6.6,0.2,9.44,0.6l1.64-11.31C2139.47-941.47,2142.46-944.85,2147.5-944.85L2147.5-944.85z M2148.28-951.71h-0.77
						c-4.07,0-13.75,1.56-15.75,16.05l-0.71,4.87c-1.16-0.05-2.36-0.07-3.58-0.07c-0.41,0-0.83,0-1.26,0.01
						c0.08-0.35,0.17-0.72,0.26-1.1l0.19-0.78v-0.81v-1.17v-0.69l-0.14-0.68c-2.17-10.61-9.2-12.32-12.74-12.49
						c-0.98-0.14-1.93-0.22-2.84-0.22c-5.49,0-8.71,2.52-10.45,4.65c-2.04,2.47-3.58,6.48-4.37,17.23
						c-3.02,2.71-4.68,6.73-4.68,11.57c0,0.64,0.03,1.3,0.09,1.94c0.46,5.7,2.42,8.94,4.62,10.78v2.64
						c0,9.48,5.06,15.78,13.89,17.29l0.98,0.17l0.99-0.12c12.83-1.54,13.83-10.98,13.83-13.83v-0.77v-0.53l-0.08-0.52
						c-0.21-1.34-0.38-2.52-0.52-3.55c0.58-0.01,1.16-0.02,1.74-0.02c0.99,0,2,0.02,3.02,0.06c0.19,2.68,0.51,5.09,0.96,7.26
						c0.51,2.43,3.05,10.38,14.59,10.38c9.74,0,12.78-5.09,13.73-8.12l0.01-0.03l0.01-0.03c0.62-2.07,0.93-4.36,0.93-7
						c0-1.32-0.08-2.76-0.24-4.29l0-0.04l0-0.04c-0.37-3.25-0.56-6.47-0.56-9.56v-2.71c0-4.81,0.63-11.43,1.86-19.66l0.08-0.51
						v-0.51v-1.17c0-3.27-1.2-11.16-12.35-13.71L2148.28-951.71L2148.28-951.71z"/>
				</g>
				<g>
					<linearGradient id="SVGID_23_" gradientUnits="userSpaceOnUse" x1="1970.8618" y1="-887.212" x2="1970.8618" y2="-822.0354">
						<stop  offset="0" style="stop-color:#ECBEA9"/>
						<stop  offset="1" style="stop-color:#FF9282"/>
					</linearGradient>
					<path class="st29" d="M1967.77-861.82h3.11c3.95,0.38,5.92,2.24,5.92,5.59c0,0.33-0.02,0.68-0.07,1.04v1.17
						c-0.78,4.93-1.17,8.44-1.17,10.54v4.68c0.51,6.49,0.77,9.87,0.77,10.14c0,3.57-2.6,5.78-7.8,6.62
						c-3.93-0.56-6.34-3.27-7.24-8.15c-0.9-4.87-1.36-8.27-1.36-10.19C1959.94-854.67,1962.55-861.82,1967.77-861.82z
						 M1971.65-887.21c1.87,0,3.4,1.45,4.58,4.35c0.4-0.02,0.79-0.03,1.17-0.03c2.92,0,4.38,1.04,4.38,3.11v0.77
						c0,0.49-1,1.99-3.01,4.48c0.8,1.81,1.2,3.36,1.2,4.65c0,0.29-0.02,0.57-0.07,0.84c-0.22,1.43-1.14,2.14-2.74,2.14
						s-3.68-0.91-6.22-2.74c-2.65,2.1-4.53,3.15-5.62,3.15c-1.09,0-1.93-0.39-2.51-1.17c-0.36-0.47-0.54-1.05-0.54-1.74
						c0-0.47,0.08-0.98,0.23-1.54c0.38-1.38,0.78-2.51,1.2-3.38c-2.25-2.28-3.38-4.23-3.38-5.86c0-1.36,2.09-2.26,6.26-2.71
						C1968.36-885.77,1970.04-887.21,1971.65-887.21z"/>
					<path d="M1971.65-887.21c1.87,0,3.4,1.45,4.58,4.35c0.4-0.02,0.79-0.03,1.17-0.03c2.92,0,4.38,1.04,4.38,3.11v0.77
						c0,0.49-1,1.99-3.01,4.48c0.8,1.81,1.2,3.36,1.2,4.65c0,0.29-0.02,0.57-0.07,0.84c-0.22,1.43-1.14,2.14-2.74,2.14
						s-3.68-0.91-6.22-2.74c-2.65,2.1-4.53,3.15-5.62,3.15c-1.09,0-1.93-0.39-2.51-1.17c-0.36-0.47-0.54-1.05-0.54-1.74
						c0-0.47,0.08-0.98,0.23-1.54c0.38-1.38,0.78-2.51,1.2-3.38c-2.25-2.28-3.38-4.23-3.38-5.86c0-1.36,2.09-2.26,6.26-2.71
						C1968.36-885.77,1970.04-887.21,1971.65-887.21L1971.65-887.21z M1970.88-861.82c3.95,0.38,5.92,2.24,5.92,5.59
						c0,0.33-0.02,0.68-0.07,1.04v1.17c-0.78,4.93-1.17,8.44-1.17,10.54v4.68c0.51,6.49,0.77,9.87,0.77,10.14
						c0,3.57-2.6,5.78-7.8,6.62c-3.93-0.56-6.34-3.27-7.24-8.15c-0.9-4.87-1.36-8.27-1.36-10.19c0-14.3,2.61-21.45,7.83-21.45
						H1970.88L1970.88-861.82z M1971.65-894.06c-3.3,0-6.3,1.62-8.95,4.83c-1.36,0.28-2.51,0.63-3.52,1.06
						c-3.56,1.54-5.69,4.53-5.69,7.99c0,2.41,0.81,4.8,2.47,7.23c-0.02,0.06-0.04,0.13-0.05,0.19c-0.31,1.12-0.48,2.26-0.48,3.35
						c0,2.17,0.66,4.2,1.91,5.85c0.11,0.14,0.21,0.28,0.33,0.41c-0.82,1.18-1.57,2.61-2.2,4.34c-1.6,4.37-2.37,10.4-2.37,18.43
						c0,2.39,0.47,6.03,1.47,11.44c1.43,7.72,6.18,12.71,13.02,13.68l1.03,0.15l1.03-0.17c12.23-1.99,13.54-10.03,13.54-13.39
						c0-0.39,0-0.67-0.77-10.41v-4.41c0-1.19,0.19-3.8,1.09-9.47l0.08-0.53v-0.54v-0.8c0.04-0.47,0.07-0.94,0.07-1.4
						c0-1.77-0.34-3.61-1.1-5.32c2.17-1.38,3.68-3.62,4.12-6.41c0.1-0.63,0.15-1.27,0.15-1.93c0-1.09-0.13-2.21-0.4-3.39
						c1.54-2.2,2.21-3.82,2.21-5.75v-0.77c0-4.28-2.59-8.6-8.29-9.7C1977.42-893.38,1973.82-894.06,1971.65-894.06L1971.65-894.06z"
						/>
				</g>
				<g>
					<linearGradient id="SVGID_24_" gradientUnits="userSpaceOnUse" x1="2005.2401" y1="-882.1932" x2="2005.2401" y2="-827.8571">
						<stop  offset="0" style="stop-color:#ECBEA9"/>
						<stop  offset="1" style="stop-color:#FF9282"/>
					</linearGradient>
					<path class="st30" d="M2007.78-882.13c1.05-0.04,2.04-0.07,2.98-0.07c9.73,0,14.59,2.57,14.59,7.7v0.84
						c0,4.35-2.61,6.74-7.83,7.16h-3.11c-0.51,0.07-0.77,0.32-0.77,0.77c0,1.67-0.09,12.21-0.27,31.62
						c-1.36,4.17-3.96,6.26-7.8,6.26c-5.22,0-7.83-4.04-7.83-12.11c-0.09-4.02-0.13-7.64-0.13-10.87c0-5.87,0.15-10.45,0.43-13.75
						c-2.61,1.07-4.3,1.61-5.09,1.61h-0.8c-4.68-0.96-7.03-3.83-7.03-8.6C1985.13-877.41,1992.68-880.92,2007.78-882.13z"/>
					<path d="M2010.76-882.19c9.73,0,14.59,2.57,14.59,7.7v0.84c0,4.35-2.61,6.74-7.83,7.16h-3.11c-0.51,0.07-0.77,0.32-0.77,0.77
						c0,1.67-0.09,12.21-0.27,31.62c-1.36,4.17-3.96,6.26-7.8,6.26c-5.22,0-7.83-4.04-7.83-12.11c-0.09-4.02-0.13-7.64-0.13-10.87
						c0-5.87,0.15-10.45,0.43-13.75c-2.61,1.07-4.3,1.61-5.09,1.61h-0.8c-4.68-0.96-7.03-3.83-7.03-8.6
						c0-5.82,7.55-9.33,22.65-10.54C2008.83-882.17,2009.82-882.19,2010.76-882.19L2010.76-882.19z M2010.76-889.05
						c-1.03,0-2.13,0.02-3.27,0.07l-0.13,0.01l-0.13,0.01c-8.45,0.67-14.77,2.03-19.33,4.16c-8.37,3.9-9.62,9.95-9.62,13.21
						c0,7.98,4.67,13.71,12.5,15.31l0.02,0c-0.03,1.67-0.05,3.48-0.05,5.43c0,3.25,0.05,6.93,0.13,10.95
						c0.03,17.52,11.24,18.88,14.68,18.88c6.82,0,12.03-4,14.31-10.98l0.33-1l0.01-1.06c0.11-12.15,0.19-20.75,0.23-25.94
						c8.61-1.64,11.75-7.96,11.75-13.67v-0.84c0-5.15-2.59-9.35-7.3-11.83C2021.44-888.16,2016.81-889.05,2010.76-889.05
						L2010.76-889.05z"/>
				</g>
				<g>
					<linearGradient id="SVGID_25_" gradientUnits="userSpaceOnUse" x1="2010.7607" y1="-951.4116" x2="2010.7607" y2="-890.2166">
						<stop  offset="0" style="stop-color:#ECBEA9"/>
						<stop  offset="1" style="stop-color:#FF9282"/>
					</linearGradient>
					<path class="st31" d="M2026.35-935.89c0.56-0.02,1.09-0.03,1.61-0.03c9.64,0,14.45,2.16,14.45,6.49c0,0.78-0.16,1.62-0.47,2.51
						c0,3.03-2.73,6.41-8.2,10.14l-0.37,0.8c2.86,8.92,4.28,14.25,4.28,15.99v2.74c-0.94,4.68-3.28,7.03-7.03,7.03h-1.57
						c-2.86,0-8.97-3.65-18.34-10.94l-15.62,9.77c-0.45,0.25-0.96,0.37-1.54,0.37h-3.11c-3.28-0.65-5.23-2.6-5.86-5.86v-3.11
						l3.88-14.45c-0.02-0.8-2.88-4.05-8.57-9.74l-0.8-2.74v-2.34c0-3.66,2.34-6.12,7.03-7.39c6.96,0.25,11.25,0.37,12.88,0.37
						c1.74-2.25,3.83-5.77,6.26-10.54c1.99-3.06,4.44-4.58,7.36-4.58c0.65,0,1.33,0.07,2.04,0.2
						C2018.49-950.36,2022.38-945.26,2026.35-935.89z"/>
					<path d="M2012.63-951.41c0.65,0,1.33,0.07,2.04,0.2c3.81,0.85,7.71,5.96,11.68,15.32c0.56-0.02,1.09-0.03,1.61-0.03
						c9.64,0,14.45,2.16,14.45,6.49c0,0.78-0.16,1.62-0.47,2.51c0,3.03-2.73,6.41-8.2,10.14l-0.37,0.8
						c2.86,8.92,4.28,14.25,4.28,15.99v2.74c-0.94,4.68-3.28,7.03-7.03,7.03h-1.57c-2.86,0-8.97-3.65-18.34-10.94l-15.62,9.77
						c-0.45,0.25-0.96,0.37-1.54,0.37h-3.11c-3.28-0.65-5.23-2.6-5.86-5.86v-3.11l3.88-14.45c-0.02-0.8-2.88-4.05-8.57-9.74
						l-0.8-2.74v-2.34c0-3.66,2.34-6.12,7.03-7.39c6.96,0.25,11.25,0.37,12.88,0.37c1.74-2.25,3.83-5.77,6.26-10.54
						C2007.26-949.88,2009.71-951.41,2012.63-951.41L2012.63-951.41z M2012.63-958.26c-3.7,0-8.97,1.34-13.11,7.7l-0.2,0.3
						l-0.16,0.32c-1.53,3-2.76,5.17-3.72,6.73c-1.96-0.05-4.84-0.14-9.07-0.29l-1.04-0.04l-1,0.27
						c-10.91,2.96-12.08,10.78-12.08,14.01v2.34v0.98l0.28,0.94l0.8,2.74l0.49,1.68l1.24,1.24c3.11,3.11,4.92,5.04,5.96,6.21
						l-3.05,11.36l-0.23,0.87v0.9v3.11v0.65l0.12,0.64c1.15,5.99,5.25,10.1,11.26,11.29l0.66,0.13h0.67h3.11
						c1.74,0,3.37-0.41,4.84-1.22l0.17-0.09l0.16-0.1l11.61-7.26c10.46,7.78,15.14,9.47,18.72,9.47h1.57
						c7.04,0,12.18-4.69,13.75-12.53l0.13-0.67v-0.68v-2.74c0-1.57-0.28-4.11-3.28-13.86c4.62-3.86,7.09-7.76,7.5-11.84
						c0.35-1.27,0.53-2.53,0.53-3.75c0-4.88-2.79-8.93-7.66-11.12c-2.77-1.25-6.33-1.96-10.82-2.16
						c-4.47-9.21-9.06-13.95-14.62-15.19l-0.11-0.02l-0.11-0.02C2014.81-958.16,2013.7-958.26,2012.63-958.26L2012.63-958.26z"/>
				</g>
				<g>
					<linearGradient id="SVGID_26_" gradientUnits="userSpaceOnUse" x1="2036.4734" y1="-890.0894" x2="2036.4734" y2="-826.4519">
						<stop  offset="0" style="stop-color:#ECBEA9"/>
						<stop  offset="1" style="stop-color:#FF9282"/>
					</linearGradient>
					<path class="st32" d="M2035.32-847.03c1.87,0.04,3.38,1.53,4.52,4.45c0.31-0.02,0.62-0.03,0.94-0.03
						c3.03,0,4.55,1.05,4.55,3.15v0.07l-0.03,0.77c0,0.49-1.03,1.96-3.08,4.42c0.74,1.76,1.1,3.28,1.1,4.55
						c0,0.33-0.02,0.65-0.07,0.94c-0.25,1.41-1.14,2.11-2.68,2.11c-0.02,0-0.06-0.01-0.1-0.03c-1.61-0.02-3.67-0.96-6.19-2.81
						c-2.65,2.01-4.53,3.01-5.62,3.01h-0.03c-1.09-0.02-1.93-0.43-2.51-1.24c-0.36-0.45-0.54-1-0.54-1.67
						c0-0.47,0.09-0.99,0.27-1.57c0.42-1.38,0.85-2.5,1.27-3.35c-2.16-2.28-3.25-4.22-3.25-5.82v-0.1c0.02-1.36,2.12-2.23,6.29-2.61
						c1.81-2.81,3.51-4.22,5.12-4.22H2035.32z M2034.11-851.18c-3.32-0.65-4.99-4.06-4.99-10.24c0-3.32,0.48-7.44,1.44-12.35
						c0.38-1.87,1.48-5.12,3.31-9.74c1.74-4.39,4.46-6.59,8.16-6.59h0.5c4.35,1.63,6.52,3.89,6.52,6.79c0,0.4-0.04,0.81-0.13,1.24
						c-0.07,0.27-0.98,3.54-2.74,9.8l-0.9,4.58c-0.4,2.05-0.69,5.58-0.87,10.57l-0.23,1.14c-0.31,3.64-2.25,5.45-5.82,5.45
						c-0.38,0-0.78-0.02-1.2-0.07L2034.11-851.18z"/>
					<path d="M2042.55-890.09c4.35,1.63,6.52,3.89,6.52,6.79c0,0.4-0.04,0.81-0.13,1.24c-0.07,0.27-0.98,3.54-2.74,9.8l-0.9,4.58
						c-0.4,2.05-0.69,5.58-0.87,10.57l-0.23,1.14c-0.31,3.64-2.25,5.45-5.82,5.45c-0.38,0-0.78-0.02-1.2-0.07l-3.04-0.6
						c-3.32-0.65-4.99-4.06-4.99-10.24c0-3.32,0.48-7.44,1.44-12.35c0.38-1.87,1.48-5.12,3.31-9.74c1.74-4.39,4.46-6.59,8.16-6.59
						H2042.55L2042.55-890.09z M2035.32-847.03c1.87,0.04,3.38,1.53,4.52,4.45c0.31-0.02,0.62-0.03,0.94-0.03
						c3.03,0,4.55,1.05,4.55,3.15v0.07l-0.03,0.77c0,0.49-1.03,1.96-3.08,4.42c0.74,1.76,1.1,3.28,1.1,4.55
						c0,0.33-0.02,0.65-0.07,0.94c-0.25,1.41-1.14,2.11-2.68,2.11c-0.02,0-0.06-0.01-0.1-0.03c-1.61-0.02-3.67-0.96-6.19-2.81
						c-2.65,2.01-4.53,3.01-5.62,3.01h-0.03c-1.09-0.02-1.93-0.43-2.51-1.24c-0.36-0.45-0.54-1-0.54-1.67
						c0-0.47,0.09-0.99,0.27-1.57c0.42-1.38,0.85-2.5,1.27-3.35c-2.16-2.28-3.25-4.22-3.25-5.82v-0.1c0.02-1.36,2.12-2.23,6.29-2.61
						c1.81-2.81,3.51-4.22,5.12-4.22H2035.32L2035.32-847.03z M2043.79-896.94h-1.24h-0.5c-3.81,0-10.77,1.42-14.53,10.92
						c-2.02,5.11-3.19,8.57-3.66,10.9c-1.06,5.44-1.57,9.9-1.57,13.71c0,5.93,1.38,9.82,3.25,12.38c-1,0.23-1.89,0.5-2.69,0.83
						c-3.58,1.49-5.76,4.44-5.81,7.89l0,0.06v0.06v0.1c0,2.33,0.76,4.66,2.31,7.04c-0.01,0.04-0.03,0.08-0.04,0.12
						c-0.38,1.22-0.57,2.43-0.57,3.58c0,2.17,0.67,4.17,1.93,5.81c1.85,2.48,4.63,3.88,7.83,3.95l0.07,0h0.07
						c1.82,0,3.64-0.53,5.81-1.74c1.78,0.87,3.47,1.36,5.11,1.5c0.34,0.05,0.68,0.07,1.02,0.07c4.9,0,8.6-3.05,9.43-7.78l0.01-0.07
						l0.01-0.07c0.1-0.63,0.15-1.3,0.15-1.98c0-1.01-0.11-2.05-0.34-3.13c1.55-2.13,2.26-3.73,2.31-5.63l0.03-0.68l0.01-0.15v-0.15
						v-0.07c0-3.09-1.36-6.2-4.27-8.11c1.66-1.88,2.73-4.37,3.07-7.35l0.16-0.79l0.12-0.56l0.02-0.57c0.22-6.05,0.56-8.55,0.75-9.5
						l0.85-4.31c2.6-9.24,2.67-9.54,2.72-9.73l0.03-0.12l0.03-0.13c0.19-0.89,0.28-1.78,0.28-2.65c0-3.4-1.43-9.63-10.97-13.21
						L2043.79-896.94L2043.79-896.94z"/>
				</g>
			</g>
		</g>
	</g>
	<g>
		<g>
			<polygon class="st4" points="2107.31,-424.62 2068.04,-407.33 2040.43,-402.91 2008.34,-413.77 1974.43,-432.76 1942.54,-461.38 
				1931.01,-510.3 1931.01,-548.76 1958.82,-597.83 1991.38,-613.28 2027.34,-621.38 2047.18,-605.4 2060.58,-599.19 
				2097.29,-601.96 2138.97,-593.16 2146.2,-573.85 2152.16,-529.84 2152.16,-503.31 2146.2,-487.71 2138.97,-465.32 
				2127.06,-447.01 			"/>
			<polygon class="st5" points="2030.32,-618.98 2007.67,-621.38 1973.07,-662.05 1955.43,-695.96 1948.65,-724.46 1952.35,-735.99 
				1971.03,-723.78 1994.78,-714.96 2025.3,-715.64 2040.43,-701.39 2049.39,-680.74 2047.18,-652.55 2040.43,-619.99 			"/>
			<polygon class="st5" points="2064.38,-601.96 2068.04,-610.49 2073.09,-621.38 2101.28,-636 2127.06,-641.7 2127.06,-636 
				2123.33,-621.38 2123.33,-607.78 2111.23,-600.99 2089.07,-597.83 2070.3,-599.64 			"/>
			<linearGradient id="SVGID_27_" gradientUnits="userSpaceOnUse" x1="2044.6403" y1="-652.762" x2="1993.0004" y2="-710.114">
				<stop  offset="0" style="stop-color:#006633"/>
				<stop  offset="0.0164" style="stop-color:#056937;stop-opacity:0.9831"/>
				<stop  offset="0.3768" style="stop-color:#6FA88B;stop-opacity:0.6123"/>
				<stop  offset="0.6663" style="stop-color:#BCD7CA;stop-opacity:0.3145"/>
				<stop  offset="0.8708" style="stop-color:#ECF4F0;stop-opacity:0.1042"/>
				<stop  offset="0.9721" style="stop-color:#FFFFFF;stop-opacity:0"/>
			</linearGradient>
			<path class="st33" d="M1992-686.07c0,0,30.4,33.64,43.43,40.11c1.02,0.51,2.25-0.07,2.5-1.19c1.58-7.08,3.39-36.32-5.61-44.36
				c-10.63-9.5-25.1-12.89-40.02-14.25C1977.36-707.12,1992-686.07,1992-686.07z"/>
			<linearGradient id="SVGID_28_" gradientUnits="userSpaceOnUse" x1="2083.9558" y1="-603.4298" x2="2113.7905" y2="-618.6313">
				<stop  offset="0" style="stop-color:#006633"/>
				<stop  offset="0.0164" style="stop-color:#056937;stop-opacity:0.9831"/>
				<stop  offset="0.3768" style="stop-color:#6FA88B;stop-opacity:0.6123"/>
				<stop  offset="0.6663" style="stop-color:#BCD7CA;stop-opacity:0.3145"/>
				<stop  offset="0.8708" style="stop-color:#ECF4F0;stop-opacity:0.1042"/>
				<stop  offset="0.9721" style="stop-color:#FFFFFF;stop-opacity:0"/>
			</linearGradient>
			<path class="st34" d="M2084.41-603.76c-1.28-0.21-1.56-1.93-0.41-2.53c4.94-2.61,15.04-8.28,19.88-13.47
				c6.56-7.01,10.22-1.47,8.61,2.26c-1.6,3.73-4,11.76-16.19,13.45C2090.43-603.23,2086.7-603.38,2084.41-603.76z"/>
			
				<linearGradient id="SVGID_29_" gradientUnits="userSpaceOnUse" x1="2082.8269" y1="-675.3781" x2="2112.554" y2="-690.5248" gradientTransform="matrix(0.9997 0.026 -0.026 0.9997 -22.6414 8.1392)">
				<stop  offset="0" style="stop-color:#006633"/>
				<stop  offset="0.0164" style="stop-color:#056937;stop-opacity:0.9831"/>
				<stop  offset="0.3768" style="stop-color:#6FA88B;stop-opacity:0.6123"/>
				<stop  offset="0.6663" style="stop-color:#BCD7CA;stop-opacity:0.3145"/>
				<stop  offset="0.8708" style="stop-color:#ECF4F0;stop-opacity:0.1042"/>
				<stop  offset="0.9721" style="stop-color:#FFFFFF;stop-opacity:0"/>
			</linearGradient>
			<path class="st35" d="M2077.57-613.54c5.7-4.66,18.78-14.31,29.34-14.22c0,0-10.32,11.78-28.56,15.97
				C2077.37-611.57,2076.78-612.89,2077.57-613.54z"/>
			<polygon class="st9" points="2060.58,-599.19 2042.93,-611.77 2045.88,-633.78 2047.91,-648.71 2056.89,-650.74 2068.49,-643.28 
				2065.33,-607.33 			"/>
			<linearGradient id="SVGID_30_" gradientUnits="userSpaceOnUse" x1="2056.4673" y1="-643.147" x2="2056.4673" y2="-611.6934">
				<stop  offset="0" style="stop-color:#7D4E24"/>
				<stop  offset="0.061" style="stop-color:#987352;stop-opacity:0.9373"/>
				<stop  offset="0.1254" style="stop-color:#B0947A;stop-opacity:0.871"/>
				<stop  offset="0.196" style="stop-color:#C5B19E;stop-opacity:0.7984"/>
				<stop  offset="0.2721" style="stop-color:#D7C9BC;stop-opacity:0.7201"/>
				<stop  offset="0.3553" style="stop-color:#E6DDD5;stop-opacity:0.6345"/>
				<stop  offset="0.4486" style="stop-color:#F1ECE8;stop-opacity:0.5385"/>
				<stop  offset="0.5577" style="stop-color:#F9F7F5;stop-opacity:0.4263"/>
				<stop  offset="0.6972" style="stop-color:#FEFDFD;stop-opacity:0.2828"/>
				<stop  offset="0.9721" style="stop-color:#FFFFFF;stop-opacity:0"/>
			</linearGradient>
			<path class="st36" d="M2054.84-612.46l-2.3-3.89c-0.29-0.49-0.45-1.05-0.46-1.63l-0.37-20.63c-0.01-0.32,0.05-0.64,0.15-0.94
				l0.89-2.54c0.29-0.83,1.21-1.26,2.04-0.95l5.26,2c0.87,0.33,1.35,1.27,1.1,2.18l-3.57,13.05c-0.04,0.15-0.07,0.31-0.08,0.47
				l-1.12,13.05c-0.05,0.62-0.85,0.83-1.2,0.33l-0.28-0.4C2054.88-612.4,2054.86-612.43,2054.84-612.46z"/>
			<g>
				<circle class="st2" cx="2040.43" cy="-746.84" r="6.75"/>
				<circle class="st2" cx="2076.25" cy="-683.9" r="3.17"/>
				<circle class="st2" cx="2168.51" cy="-593.16" r="4.67"/>
				<circle class="st2" cx="1917.07" cy="-589.84" r="9.35"/>
				<path class="st2" d="M2169.57-528.94c-0.05-0.01-0.1-0.01-0.15-0.02c-4.07-0.39-7.05-3.89-6.59-7.96
					c0.35-3.12,0.69-6.06,0.98-8.23c1.02-7.8-0.79-17.86-9.72-37.2c-8.93-19.33-16.05-21.82-20.58-22.95
					c-4.52-1.13-3.62-2.83-3.73-5.43c-0.11-2.6,8.59-28.83,9.16-30.64c0.57-1.81-0.9-5.2-2.6-6.44c-1.7-1.24-7.91,0.68-21.48,1.81
					s-31.66,14.36-37.2,17.86c-5.54,3.5-6.33,1.36-7.12-1.02c-0.79-2.37,7.12-18.77,7.12-18.77s-0.34-6.22-7.01-5.31
					c-6.67,0.9-10.29-0.79-12.44-2.6c-2.15-1.81-1.92-12.66-4.3-25.78c-1.47-8.14-5.87-15.5-8.99-19.91
					c-1.7-2.41-2.54-5.35-2.23-8.29c0.4-3.79-0.32-8.64-2.68-10.69c-1.98-1.71-5.52-1.8-8.13-1.57c-2.04,0.18-4.07-0.17-6.01-0.82
					c-7.96-2.67-18.77,1.84-32.22,1.3c-15.07-0.6-31.36-14.17-31.96-15.07c-0.6-0.9-9.04-7.24-13.87,0
					c-4.82,7.24-2.71,15.07,3.32,43.72c6.03,28.64,44.62,68.74,44.62,68.74s4.45,4.79-8.89,7.61s-33.01,16.85-40.48,24.31
					c-7.46,7.46-6.9,12.32-13.79,16.17c-6.9,3.84-10.4,3.84-14.13,15.94c-1.36,4.41-2.71,12.78-6.44,15.26
					c-3.73,2.49-7.91,12.21,2.94,18.77c4.93,2.98,11.53,3.28,11.98,9.38c0.45,6.11,6.56,37.54,17.75,59.92
					c11.19,22.39,36.29,34.82,49.29,42.06c13,7.24,36.41,16.05,40.93,16.17c2.79,0.07,10.28-0.16,15.6-0.35
					c3.84-0.14,7.68,0.39,11.34,1.56l7.51,2.38c3.94,1.25,8.21,0.93,11.92-0.89l14.62-7.17c2.18-1.07,4.63-1.5,7.04-1.24l5.11,0.55
					c9.77,1.04,18.55-5.99,19.67-15.75l1.8-15.7c0.3-2.57,1.62-4.92,3.69-6.47c4.27-3.2,10.89-8.83,11.7-10.05
					c5.43-8.14,3.05-25.55,5.77-29.85c2.71-4.3,3.84-9.38,6.56-15.04c1.24-2.59,2.13-7.61,2.73-12.29c0.27-2.11,2.53-3.26,4.44-2.32
					c1.24,0.61,2.62,0.95,4.09,0.95c5.51,0,9.91-4.77,9.29-10.4C2177.33-524.99,2173.85-528.46,2169.57-528.94z M2071.54-610.33
					l0.02-0.02c7.83-7.14,26.23-21.87,48.33-25.62c2.19-0.37,3.99,1.73,3.29,3.83c-2.54,7.7-8.85,23.13-19.79,27.81
					c-8.15,3.49-18.22,2.49-25.61,0.89c-0.86-0.19-0.98-1.35-0.18-1.72c8.7-4.06,18.5-10.65,24.02-14.57
					c-8.7,5.43-21.19,9.02-29.26,10.94C2071.45-608.56,2070.86-609.7,2071.54-610.33z M2049.66-641.82
					c0.22-2.65,2.77-4.45,5.36-3.84c2.45,0.59,5.36,1.51,7.44,2.9c1.75,1.17,2.4,3.45,1.54,5.37c-1.87,4.18-5.45,14.28-5.31,29.97
					c0.01,1-0.71,1.92-1.71,2.01c-0.78,0.07-1.47-0.32-1.83-0.94l-2.97-5.07c-1.24-2.11-1.97-4.48-2.15-6.93
					C2049.62-623.88,2049.04-634.34,2049.66-641.82z M1981.59-661.59c-24.42-41.91-30.75-62.71-28.94-66.63s15.38,17.19,43.11,17.79
					c27.74,0.6,47.94,11.16,48.54,32.26c0.34,12.01-1.95,26.79-2.71,39.9c-0.11,1.94-2.38,2.93-3.89,1.72
					c-56.63-45.24-59.88-62.58-59.88-62.58c-0.39,13.91,31.37,53.51,47.36,73.88c1.6,2.04-0.74,4.8-3.01,3.57
					C2009.53-628.52,1993.82-640.61,1981.59-661.59z M2145.9-538.28c-0.9,12.66-0.9,22.61-4.52,32.26s-6.33,25.93-10.55,33.16
					s-12.36,24.42-16.28,28.64c-3.92,4.22-36.18,34.07-71.45,36.78c-30.06,2.31-57.71-33.91-65.23-44.67
					c-0.76-1.08-2.43-0.72-2.68,0.58l-0.97,5.05c-0.47,2.44-3.48,3.35-5.21,1.57c-11.12-11.38-40.3-45.72-32.94-86.44
					c9.04-50.05,37.08-65.73,37.08-65.73s25.02-21.26,51.25-15.07c26.23,6.18,95.27,72.06,52.76,158.89c0,0,38.75-64.19,7.22-122.91
					c-1.71-3.18-3.97-5.99-6.39-8.66c-1.14-1.25-1.84-2.84-2-4.52c-0.18-1.94,0.89-3.78,2.64-4.62l1.76-0.84
					c1.05-0.5,2.19-0.76,3.36-0.76c5.89,0.01,24.69,0.05,27.48,0.3c3.32,0.3,17.49,1.21,22.91,17.79
					C2139.57-560.9,2146.8-550.95,2145.9-538.28z"/>
				<circle class="st2" cx="1883.3" cy="-529.84" r="4.82"/>
				<circle class="st2" cx="1901.69" cy="-437.39" r="6.03"/>
				<circle class="st2" cx="1993.31" cy="-326.3" r="6.03"/>
				<circle class="st2" cx="2155.77" cy="-370.91" r="3.62"/>
				<circle class="st2" cx="2197" cy="-437.39" r="9.35"/>
			</g>
			<linearGradient id="SVGID_31_" gradientUnits="userSpaceOnUse" x1="2033.328" y1="-440.2113" x2="1997.999" y2="-593.238">
				<stop  offset="0.324" style="stop-color:#FFFFFF;stop-opacity:0"/>
				<stop  offset="0.4411" style="stop-color:#FDF9F7;stop-opacity:0.1732"/>
				<stop  offset="0.626" style="stop-color:#F6E9E0;stop-opacity:0.4467"/>
				<stop  offset="0.8542" style="stop-color:#EBCEBB;stop-opacity:0.7843"/>
				<stop  offset="1" style="stop-color:#E3BBA0"/>
			</linearGradient>
			<path class="st37" d="M2014.42-595.05c-1.76-0.12-3.51-0.16-5.25-0.12c-0.01,0-0.02,0-0.02,0l0,0
				c-5.85,0.47-11.66,1.81-17.29,4.09c-34.88,14.1-49.77,58.69-33.25,99.59c12.7,31.42,40.23,51.53,68.12,52.79v0h0.01
				c27.06-9.21,47.89-37.4,50.25-72.03C2079.97-554.75,2051.96-592.49,2014.42-595.05z"/>
			<linearGradient id="SVGID_32_" gradientUnits="userSpaceOnUse" x1="2128.8984" y1="-478.4091" x2="2103.0691" y2="-590.2888">
				<stop  offset="0.324" style="stop-color:#FFFFFF;stop-opacity:0"/>
				<stop  offset="0.4411" style="stop-color:#FDF9F7;stop-opacity:0.1732"/>
				<stop  offset="0.626" style="stop-color:#F6E9E0;stop-opacity:0.4467"/>
				<stop  offset="0.8542" style="stop-color:#EBCEBB;stop-opacity:0.7843"/>
				<stop  offset="1" style="stop-color:#E3BBA0"/>
			</linearGradient>
			<path class="st38" d="M2108.49-524.58c-0.48-2.25-1.05-4.47-1.72-6.67c-3.2-10.53-13.13-42.54-17.9-50.82
				c-5.73-9.95,26.76-7.01,31.58-0.08c4.57,6.57,32.15,45.08,3.49,101.16c-3.3,6.47-12.13,7.49-16.86,1.97l0,0
				c-1.06-1.23-1.51-2.87-1.25-4.47l0.58-3.57c0.74-4.56,3.03-13.29,2.81-17.91l0.53-4.52c-0.33-6.77,0.34-7.58-1.07-14.21
				L2108.49-524.58z"/>
		</g>
		<g>
			<g>
				<g>
					<linearGradient id="SVGID_33_" gradientUnits="userSpaceOnUse" x1="1917.5812" y1="-435.9077" x2="1917.5812" y2="-376.5864">
						<stop  offset="0" style="stop-color:#ECBEA9"/>
						<stop  offset="1" style="stop-color:#FF9282"/>
					</linearGradient>
					<path class="st39" d="M1918.87-435.91c10.64,0,17.93,3.25,21.88,9.74c0.47,1.07,0.7,2.15,0.7,3.25c0,0.74-0.11,1.48-0.33,2.24
						c-0.65,3.26-2.6,5.21-5.86,5.86c-3.72,0-6.15-0.72-7.28-2.16c-1.13-1.44-2.3-2.35-3.51-2.74c-1.22-0.39-2.82-0.59-4.8-0.59
						h-1.17c-7.09,0.69-11,2.39-11.71,5.09c2.14,0.71,9.17,1.88,21.08,3.51c11.71,2.52,17.57,7.6,17.57,15.22
						c0,9.95-8.72,16.45-26.16,19.51c-2.28,0.27-4.23,0.4-5.86,0.4c-10.66,0-15.99-3.12-15.99-9.37c0.94-4.95,3.28-7.43,7.03-7.43
						h1.54c3.39,0.78,5.61,1.17,6.66,1.17h2.71c7.81-0.94,11.71-2.11,11.71-3.51c-1.49-0.96-9.3-2.26-23.42-3.91
						c-3.55-0.49-6.91-2.25-10.1-5.29c-2.54-2.39-3.81-5.04-3.81-7.96c0-0.76,0.09-1.54,0.27-2.34
						C1892.11-427.61,1901.74-434.5,1918.87-435.91z"/>
					<path class="st2" d="M1918.87-435.91c10.64,0,17.93,3.25,21.88,9.74c0.47,1.07,0.7,2.15,0.7,3.25c0,0.74-0.11,1.48-0.33,2.24
						c-0.65,3.26-2.6,5.21-5.86,5.86c-3.72,0-6.15-0.72-7.28-2.16c-1.13-1.44-2.3-2.35-3.51-2.74c-1.22-0.39-2.82-0.59-4.8-0.59
						h-1.17c-7.09,0.69-11,2.39-11.71,5.09c2.14,0.71,9.17,1.88,21.08,3.51c11.71,2.52,17.57,7.6,17.57,15.22
						c0,9.95-8.72,16.45-26.16,19.51c-2.28,0.27-4.23,0.4-5.86,0.4c-10.66,0-15.99-3.12-15.99-9.37c0.94-4.95,3.28-7.43,7.03-7.43
						h1.54c3.39,0.78,5.61,1.17,6.66,1.17h2.71c7.81-0.94,11.71-2.11,11.71-3.51c-1.49-0.96-9.3-2.26-23.42-3.91
						c-3.55-0.49-6.91-2.25-10.1-5.29c-2.54-2.39-3.81-5.04-3.81-7.96c0-0.76,0.09-1.54,0.27-2.34
						C1892.11-427.61,1901.74-434.5,1918.87-435.91L1918.87-435.91z M1918.87-442.76h-0.28l-0.28,0.02
						c-25.49,2.09-33.14,15.36-35.04,26.19c-0.26,1.23-0.39,2.46-0.39,3.65c0,3.35,1.04,8.32,5.98,12.96
						c1.79,1.7,3.66,3.11,5.6,4.22c-1.65,1.92-3.04,4.63-3.77,8.48l-0.12,0.63v0.64c0,4.88,2.23,16.22,22.85,16.22
						c1.91,0,4.09-0.15,6.66-0.45l0.19-0.02l0.19-0.03c26.31-4.61,31.83-16.82,31.83-26.26c0-5.01-1.67-11.01-8-15.73
						c1.71-1.81,2.91-4.12,3.49-6.83c0.35-1.29,0.53-2.59,0.53-3.87c0-2.04-0.43-4.05-1.28-5.99l-0.18-0.42l-0.24-0.39
						C1941.35-438.38,1932.02-442.76,1918.87-442.76L1918.87-442.76z"/>
				</g>
				<g>
					<linearGradient id="SVGID_34_" gradientUnits="userSpaceOnUse" x1="1983.611" y1="-433.2646" x2="1983.611" y2="-376.5864">
						<stop  offset="0" style="stop-color:#ECBEA9"/>
						<stop  offset="1" style="stop-color:#FF9282"/>
					</linearGradient>
					<path class="st40" d="M1999.2-433.2c5.24,0,11.09,12.1,17.53,36.3c1.14,3.37,1.71,6.25,1.71,8.63c0,1.58-0.23,2.96-0.7,4.12
						c-1.25,2.94-3.4,4.42-6.46,4.42c-4.33,0-7.07-2.37-8.23-7.11c-1.16-4.74-3.49-12.39-6.99-22.94
						c-5.11,8.16-9.78,12.25-14.02,12.25h-0.13c-4.3-0.09-8.17-3.39-11.61-9.9l-4.68,17.57c-1.67,8.86-4.92,13.28-9.74,13.28
						c-2.5,0-4.46-1.1-5.89-3.31c-0.8-1.18-1.2-2.63-1.2-4.35c0-1.43,0.28-3.04,0.84-4.85c2.88-14.14,5.88-26.23,9-36.27
						c1.99-4.68,5.1-7.03,9.33-7.03c4.08,0,8.9,4.42,14.45,13.25c0.67,0,2.39-2.46,5.15-7.39c2.52-4.48,5.96-6.73,10.31-6.73
						C1998.31-433.26,1998.76-433.24,1999.2-433.2z"/>
					<path class="st2" d="M1997.86-433.26c0.45,0,0.89,0.02,1.34,0.07c5.24,0,11.09,12.1,17.53,36.3c1.14,3.37,1.71,6.25,1.71,8.63
						c0,1.58-0.23,2.96-0.7,4.12c-1.25,2.94-3.4,4.42-6.46,4.42c-4.33,0-7.07-2.37-8.23-7.11c-1.16-4.74-3.49-12.39-6.99-22.94
						c-5.11,8.16-9.78,12.25-14.02,12.25h-0.13c-4.3-0.09-8.17-3.39-11.61-9.9l-4.68,17.57c-1.67,8.86-4.92,13.28-9.74,13.28
						c-2.5,0-4.46-1.1-5.89-3.31c-0.8-1.18-1.2-2.63-1.2-4.35c0-1.43,0.28-3.04,0.84-4.85c2.88-14.14,5.88-26.23,9-36.27
						c1.99-4.68,5.1-7.03,9.33-7.03c4.08,0,8.9,4.42,14.45,13.25c0.67,0,2.39-2.46,5.15-7.39
						C1990.08-431.02,1993.51-433.26,1997.86-433.26L1997.86-433.26z M1942.16-387.24v0.01c-0.03,0.19-0.06,0.38-0.08,0.56
						c-0.1,0.83-0.16,1.63-0.16,2.42c0,2.01,0.34,3.87,1,5.56c0.35,0.91,0.81,1.77,1.35,2.58c2.68,4.11,6.81,6.37,11.6,6.37
						c5.85,0,13.43-3.23,16.41-18.6l1.29-4.84c2.54,1.61,5.26,2.44,8.18,2.5h0.08h0.07h0.14c4.37,0,8.17-2.04,11.39-4.9
						c1.36,4.36,2.34,7.83,2.97,10.37c1.92,7.83,7.34,12.33,14.88,12.33c3.49,0,6.58-1.14,8.98-3.25c1.59-1.37,2.88-3.17,3.79-5.34
						l0.02-0.05l0.02-0.06c0.08-0.21,0.16-0.41,0.23-0.62c0.07-0.16,0.11-0.33,0.17-0.5c0.54-1.69,0.8-3.56,0.8-5.56
						c0-1.05-0.07-2.14-0.23-3.27c-0.03-0.31-0.08-0.63-0.14-0.96v-0.01c-0.32-1.96-0.86-4.08-1.62-6.37
						c-1.15-4.33-2.3-8.28-3.41-11.85c-0.06-0.19-0.11-0.39-0.18-0.58v-0.01c-0.4-1.28-0.8-2.5-1.2-3.68
						c-0.14-0.39-0.26-0.78-0.4-1.15c-1.23-3.57-2.47-6.69-3.71-9.41c-4.55-9.94-9.22-14.3-14.81-14.48
						c-0.57-0.05-1.15-0.08-1.72-0.08c-4.58,0-10.92,1.62-15.61,9.11c-4.83-5.58-9.48-8.23-14.3-8.23c-4.07,0-11.51,1.45-15.65,11.2
						l-0.13,0.31l-0.1,0.33c-1.66,5.32-3.29,11.26-4.9,17.75c-0.7,2.83-1.38,5.77-2.07,8.83c0,0,0.01,0,0,0.01
						c-0.06,0.24-0.11,0.48-0.16,0.73L1942.16-387.24z"/>
				</g>
				<g>
					<linearGradient id="SVGID_35_" gradientUnits="userSpaceOnUse" x1="2109.3469" y1="-432.7961" x2="2109.3469" y2="-377.7574">
						<stop  offset="0" style="stop-color:#ECBEA9"/>
						<stop  offset="1" style="stop-color:#FF9282"/>
					</linearGradient>
					<path class="st41" d="M2114.03-432.8c8.5,0,15,4.43,19.51,13.28v2.34c0,4.24-2.73,6.58-8.2,7.03c-2.28,0-5.13-2.09-8.57-6.26
						c-0.87-0.51-1.65-0.77-2.34-0.77h-1.57c-5.82,0-9.86,3.12-12.11,9.37l-0.37,2.31v2.34c1.25,6.78,4.1,10.17,8.57,10.17
						c3.03,0,7.99-2.09,14.86-6.26c0.42-0.27,1.07-0.4,1.94-0.4h1.17c4.68,0.91,7.03,3.26,7.03,7.03v1.17
						c0,5.22-6.5,9.65-19.51,13.28c-1.36,0.27-2.92,0.4-4.68,0.4h-2.34c-9.44,0-16.46-5.73-21.08-17.2
						c-1.05-3.7-1.57-6.83-1.57-9.37c0-11.22,5.33-19.8,15.99-25.73C2104.76-431.88,2109.19-432.8,2114.03-432.8z"/>
					<path class="st2" d="M2114.03-432.8c8.5,0,15,4.43,19.51,13.28v2.34c0,4.24-2.73,6.58-8.2,7.03c-2.28,0-5.13-2.09-8.57-6.26
						c-0.87-0.51-1.65-0.77-2.34-0.77h-1.57c-5.82,0-9.86,3.12-12.11,9.37l-0.37,2.31v2.34c1.25,6.78,4.1,10.17,8.57,10.17
						c3.03,0,7.99-2.09,14.86-6.26c0.42-0.27,1.07-0.4,1.94-0.4h1.17c4.68,0.91,7.03,3.26,7.03,7.03v1.17
						c0,5.22-6.5,9.65-19.51,13.28c-1.36,0.27-2.92,0.4-4.68,0.4h-2.34c-9.44,0-16.46-5.73-21.08-17.2
						c-1.05-3.7-1.57-6.83-1.57-9.37c0-11.22,5.33-19.8,15.99-25.73C2104.76-431.88,2109.19-432.8,2114.03-432.8L2114.03-432.8z
						 M2114.03-439.65c-5.8,0-11.23,1.13-16.12,3.36l-0.25,0.11l-0.24,0.13c-12.77,7.1-19.51,18.07-19.51,31.72
						c0,3.21,0.6,6.88,1.83,11.24l0.1,0.35l0.14,0.34c7.15,17.76,18.87,21.49,27.43,21.49h2.34c2.2,0,4.22-0.18,6.01-0.53l0.26-0.05
						l0.26-0.07c10.52-2.94,24.51-8.2,24.51-19.88v-1.17c0-5.6-2.95-9.99-8.08-12.34c7.02-3.19,7.68-9.85,7.68-12.22v-2.34v-1.64
						l-0.75-1.46C2132.48-436.69,2121.76-439.65,2114.03-439.65L2114.03-439.65z M2107.4-406.03c1.58-3.94,3.56-4.29,5.46-4.29h0.11
						c1.84,2.05,4.11,4.18,6.74,5.55c-8.09,4.85-10.65,4.94-10.76,4.94c-0.07,0-0.12,0-0.15-0.01c-0.17-0.17-0.95-1.07-1.56-3.98
						v-1.14L2107.4-406.03L2107.4-406.03z"/>
				</g>
				<g>
					<linearGradient id="SVGID_36_" gradientUnits="userSpaceOnUse" x1="2165.406" y1="-432.3947" x2="2165.406" y2="-376.9879">
						<stop  offset="0" style="stop-color:#ECBEA9"/>
						<stop  offset="1" style="stop-color:#FF9282"/>
					</linearGradient>
					<path class="st42" d="M2186.5-432.39c4.68,1.07,7.03,3.41,7.03,7.03v1.17c-1.29,8.61-1.94,15.5-1.94,20.68v2.71
						c0,3.37,0.2,6.81,0.6,10.34c0.13,1.29,0.2,2.49,0.2,3.58c0,1.94-0.21,3.61-0.64,5.02c-0.69,2.21-3.09,3.31-7.19,3.31
						c-4.57,0-7.2-1.64-7.88-4.92c-0.68-3.28-1.02-7.36-1.02-12.25c-3.3-0.36-6.52-0.54-9.67-0.54c-3.12,0-6.18,0.18-9.17,0.54
						c0,2.25,0.39,5.9,1.17,10.94v0.77c0,4.06-2.6,6.4-7.8,7.03c-5.46-0.94-8.2-4.45-8.2-10.54v-7.13h-0.23
						c-2.59,0-4.06-2.3-4.42-6.89c-0.04-0.45-0.07-0.89-0.07-1.34c0-3.95,1.48-6.52,4.45-7.73c0.49-9.3,1.51-14.88,3.04-16.73
						c1.16-1.43,2.88-2.14,5.15-2.14c0.69,0,1.43,0.07,2.21,0.2c3.48,0,5.7,2.34,6.66,7.03v1.17c-1.05,4.39-1.65,7.72-1.81,9.97
						c3.37-0.29,6.52-0.43,9.47-0.43c3.46,0,6.6,0.2,9.44,0.6l1.64-11.31C2178.47-429.02,2181.46-432.39,2186.5-432.39z"/>
					<path class="st2" d="M2186.5-432.39c4.68,1.07,7.03,3.41,7.03,7.03v1.17c-1.29,8.61-1.94,15.5-1.94,20.68v2.71
						c0,3.37,0.2,6.81,0.6,10.34c0.13,1.29,0.2,2.49,0.2,3.58c0,1.94-0.21,3.61-0.64,5.02c-0.69,2.21-3.09,3.31-7.19,3.31
						c-4.57,0-7.2-1.64-7.88-4.92c-0.68-3.28-1.02-7.36-1.02-12.25c-3.3-0.36-6.52-0.54-9.67-0.54c-3.12,0-6.18,0.18-9.17,0.54
						c0,2.25,0.39,5.9,1.17,10.94v0.77c0,4.06-2.6,6.4-7.8,7.03c-5.46-0.94-8.2-4.45-8.2-10.54v-7.13h-0.23
						c-2.59,0-4.06-2.3-4.42-6.89c-0.04-0.45-0.07-0.89-0.07-1.34c0-3.95,1.48-6.52,4.45-7.73c0.49-9.3,1.51-14.88,3.04-16.73
						c1.16-1.43,2.88-2.14,5.15-2.14c0.69,0,1.43,0.07,2.21,0.2c3.48,0,5.7,2.34,6.66,7.03v1.17c-1.05,4.39-1.65,7.72-1.81,9.97
						c3.37-0.29,6.52-0.43,9.47-0.43c3.46,0,6.6,0.2,9.44,0.6l1.64-11.31C2178.47-429.02,2181.46-432.39,2186.5-432.39
						L2186.5-432.39z M2187.27-439.25h-0.77c-4.07,0-13.75,1.56-15.75,16.05l-0.71,4.87c-1.16-0.05-2.36-0.07-3.58-0.07
						c-0.41,0-0.83,0-1.26,0.01c0.08-0.35,0.17-0.72,0.26-1.1l0.19-0.78v-0.81v-1.17v-0.69l-0.14-0.68
						c-2.17-10.61-9.2-12.32-12.74-12.49c-0.98-0.14-1.93-0.22-2.84-0.22c-5.49,0-8.71,2.52-10.45,4.65
						c-2.04,2.47-3.58,6.48-4.37,17.23c-3.02,2.71-4.68,6.73-4.68,11.57c0,0.64,0.03,1.3,0.09,1.94c0.46,5.7,2.42,8.94,4.62,10.78
						v2.64c0,9.48,5.06,15.78,13.89,17.29l0.98,0.17l0.99-0.12c12.83-1.54,13.83-10.98,13.83-13.83v-0.77v-0.53l-0.08-0.52
						c-0.21-1.34-0.38-2.52-0.52-3.55c0.58-0.01,1.16-0.02,1.74-0.02c0.99,0,2,0.02,3.02,0.06c0.19,2.68,0.51,5.09,0.96,7.26
						c0.51,2.43,3.05,10.38,14.59,10.38c9.74,0,12.78-5.09,13.73-8.12l0.01-0.03l0.01-0.03c0.62-2.07,0.93-4.36,0.93-7
						c0-1.32-0.08-2.76-0.24-4.29l0-0.04l0-0.04c-0.37-3.25-0.56-6.47-0.56-9.56v-2.71c0-4.81,0.63-11.43,1.86-19.66l0.08-0.51
						v-0.51v-1.17c0-3.27-1.2-11.16-12.35-13.71L2187.27-439.25L2187.27-439.25z"/>
				</g>
				<g>
					<linearGradient id="SVGID_37_" gradientUnits="userSpaceOnUse" x1="2009.8589" y1="-374.7529" x2="2009.8589" y2="-309.5763">
						<stop  offset="0" style="stop-color:#ECBEA9"/>
						<stop  offset="1" style="stop-color:#FF9282"/>
					</linearGradient>
					<path class="st43" d="M2006.76-349.36h3.11c3.95,0.38,5.92,2.24,5.92,5.59c0,0.33-0.02,0.68-0.07,1.04v1.17
						c-0.78,4.93-1.17,8.44-1.17,10.54v4.68c0.51,6.49,0.77,9.87,0.77,10.14c0,3.57-2.6,5.78-7.8,6.62
						c-3.93-0.56-6.34-3.27-7.24-8.15c-0.9-4.87-1.35-8.27-1.35-10.19C1998.93-342.21,2001.54-349.36,2006.76-349.36z
						 M2010.65-374.75c1.87,0,3.4,1.45,4.58,4.35c0.4-0.02,0.79-0.03,1.17-0.03c2.92,0,4.38,1.04,4.38,3.11v0.77
						c0,0.49-1,1.99-3.01,4.48c0.8,1.81,1.2,3.36,1.2,4.65c0,0.29-0.02,0.57-0.07,0.84c-0.22,1.43-1.14,2.14-2.74,2.14
						c-1.61,0-3.68-0.91-6.22-2.74c-2.65,2.1-4.53,3.15-5.62,3.15s-1.93-0.39-2.51-1.17c-0.36-0.47-0.54-1.05-0.54-1.74
						c0-0.47,0.08-0.98,0.23-1.54c0.38-1.38,0.78-2.51,1.2-3.38c-2.25-2.28-3.38-4.23-3.38-5.86c0-1.36,2.09-2.26,6.26-2.71
						C2007.36-373.31,2009.04-374.75,2010.65-374.75z"/>
					<path class="st2" d="M2010.65-374.75c1.87,0,3.4,1.45,4.58,4.35c0.4-0.02,0.79-0.03,1.17-0.03c2.92,0,4.38,1.04,4.38,3.11v0.77
						c0,0.49-1,1.99-3.01,4.48c0.8,1.81,1.2,3.36,1.2,4.65c0,0.29-0.02,0.57-0.07,0.84c-0.22,1.43-1.14,2.14-2.74,2.14
						c-1.61,0-3.68-0.91-6.22-2.74c-2.65,2.1-4.53,3.15-5.62,3.15s-1.93-0.39-2.51-1.17c-0.36-0.47-0.54-1.05-0.54-1.74
						c0-0.47,0.08-0.98,0.23-1.54c0.38-1.38,0.78-2.51,1.2-3.38c-2.25-2.28-3.38-4.23-3.38-5.86c0-1.36,2.09-2.26,6.26-2.71
						C2007.36-373.31,2009.04-374.75,2010.65-374.75L2010.65-374.75z M2009.88-349.36c3.95,0.38,5.92,2.24,5.92,5.59
						c0,0.33-0.02,0.68-0.07,1.04v1.17c-0.78,4.93-1.17,8.44-1.17,10.54v4.68c0.51,6.49,0.77,9.87,0.77,10.14
						c0,3.57-2.6,5.78-7.8,6.62c-3.93-0.56-6.34-3.27-7.24-8.15c-0.9-4.87-1.35-8.27-1.35-10.19c0-14.3,2.61-21.45,7.83-21.45
						H2009.88L2009.88-349.36z M2010.65-381.61c-3.3,0-6.3,1.62-8.95,4.83c-1.36,0.28-2.51,0.63-3.52,1.06
						c-3.56,1.54-5.69,4.53-5.69,7.99c0,2.41,0.81,4.8,2.47,7.23c-0.02,0.06-0.04,0.13-0.05,0.19c-0.31,1.12-0.48,2.26-0.48,3.35
						c0,2.17,0.66,4.2,1.91,5.85c0.11,0.14,0.21,0.28,0.33,0.41c-0.82,1.18-1.57,2.61-2.2,4.34c-1.6,4.37-2.37,10.4-2.37,18.43
						c0,2.39,0.47,6.03,1.47,11.44c1.43,7.72,6.18,12.71,13.02,13.68l1.03,0.15l1.03-0.17c12.23-1.99,13.55-10.03,13.55-13.39
						c0-0.39,0-0.67-0.77-10.41v-4.41c0-1.19,0.19-3.8,1.09-9.47l0.08-0.53v-0.54v-0.8c0.04-0.47,0.07-0.94,0.07-1.4
						c0-1.77-0.34-3.61-1.1-5.32c2.17-1.38,3.68-3.62,4.12-6.41c0.1-0.63,0.15-1.27,0.15-1.93c0-1.09-0.13-2.21-0.41-3.39
						c1.54-2.2,2.21-3.82,2.21-5.75v-0.77c0-4.28-2.59-8.6-8.29-9.7C2016.41-380.92,2012.81-381.61,2010.65-381.61L2010.65-381.61z"
						/>
				</g>
				<g>
					<linearGradient id="SVGID_38_" gradientUnits="userSpaceOnUse" x1="2044.2372" y1="-369.7341" x2="2044.2372" y2="-315.398">
						<stop  offset="0" style="stop-color:#ECBEA9"/>
						<stop  offset="1" style="stop-color:#FF9282"/>
					</linearGradient>
					<path class="st44" d="M2046.78-369.67c1.05-0.04,2.04-0.07,2.98-0.07c9.73,0,14.59,2.57,14.59,7.7v0.84
						c0,4.35-2.61,6.74-7.83,7.16h-3.11c-0.51,0.07-0.77,0.32-0.77,0.77c0,1.67-0.09,12.21-0.27,31.62
						c-1.36,4.17-3.96,6.26-7.8,6.26c-5.22,0-7.83-4.04-7.83-12.11c-0.09-4.01-0.13-7.64-0.13-10.87c0-5.87,0.15-10.45,0.44-13.75
						c-2.61,1.07-4.31,1.61-5.09,1.61h-0.8c-4.68-0.96-7.03-3.83-7.03-8.6C2024.13-364.95,2031.68-368.46,2046.78-369.67z"/>
					<path class="st2" d="M2049.76-369.73c9.73,0,14.59,2.57,14.59,7.7v0.84c0,4.35-2.61,6.74-7.83,7.16h-3.11
						c-0.51,0.07-0.77,0.32-0.77,0.77c0,1.67-0.09,12.21-0.27,31.62c-1.36,4.17-3.96,6.26-7.8,6.26c-5.22,0-7.83-4.04-7.83-12.11
						c-0.09-4.01-0.13-7.64-0.13-10.87c0-5.87,0.15-10.45,0.44-13.75c-2.61,1.07-4.31,1.61-5.09,1.61h-0.8
						c-4.68-0.96-7.03-3.83-7.03-8.6c0-5.82,7.55-9.33,22.65-10.54C2047.83-369.71,2048.82-369.73,2049.76-369.73L2049.76-369.73z
						 M2049.76-376.59c-1.03,0-2.13,0.02-3.27,0.07l-0.13,0.01l-0.13,0.01c-8.45,0.67-14.77,2.03-19.33,4.16
						c-8.37,3.9-9.62,9.95-9.62,13.21c0,7.98,4.67,13.71,12.5,15.31l0.02,0c-0.03,1.67-0.05,3.48-0.05,5.43
						c0,3.25,0.05,6.93,0.13,10.95c0.03,17.52,11.24,18.88,14.68,18.88c6.82,0,12.03-4,14.31-10.98l0.33-1l0.01-1.06
						c0.11-12.15,0.19-20.75,0.23-25.94c8.61-1.64,11.75-7.96,11.75-13.67v-0.84c0-5.15-2.59-9.35-7.3-11.83
						C2060.43-375.7,2055.81-376.59,2049.76-376.59L2049.76-376.59z"/>
				</g>
				<g>
					<linearGradient id="SVGID_39_" gradientUnits="userSpaceOnUse" x1="2049.7578" y1="-438.9525" x2="2049.7578" y2="-377.7574">
						<stop  offset="0" style="stop-color:#ECBEA9"/>
						<stop  offset="1" style="stop-color:#FF9282"/>
					</linearGradient>
					<path class="st45" d="M2065.35-423.43c0.56-0.02,1.09-0.03,1.61-0.03c9.64,0,14.45,2.16,14.45,6.49c0,0.78-0.16,1.62-0.47,2.51
						c0,3.03-2.73,6.41-8.2,10.14l-0.37,0.8c2.86,8.92,4.28,14.25,4.28,15.99v2.74c-0.94,4.68-3.28,7.03-7.03,7.03h-1.57
						c-2.85,0-8.97-3.65-18.33-10.94l-15.62,9.77c-0.45,0.25-0.96,0.37-1.54,0.37h-3.11c-3.28-0.65-5.23-2.6-5.86-5.86v-3.11
						l3.88-14.45c-0.02-0.8-2.88-4.05-8.57-9.74l-0.8-2.74v-2.34c0-3.66,2.34-6.12,7.03-7.39c6.96,0.25,11.25,0.37,12.88,0.37
						c1.74-2.25,3.83-5.77,6.26-10.54c1.99-3.06,4.44-4.58,7.36-4.58c0.65,0,1.33,0.07,2.04,0.2
						C2057.49-437.9,2061.38-432.8,2065.35-423.43z"/>
					<path class="st2" d="M2051.63-438.95c0.65,0,1.33,0.07,2.04,0.2c3.81,0.85,7.71,5.96,11.68,15.32
						c0.56-0.02,1.09-0.03,1.61-0.03c9.64,0,14.45,2.16,14.45,6.49c0,0.78-0.16,1.62-0.47,2.51c0,3.03-2.73,6.41-8.2,10.14
						l-0.37,0.8c2.86,8.92,4.28,14.25,4.28,15.99v2.74c-0.94,4.68-3.28,7.03-7.03,7.03h-1.57c-2.85,0-8.97-3.65-18.33-10.94
						l-15.62,9.77c-0.45,0.25-0.96,0.37-1.54,0.37h-3.11c-3.28-0.65-5.23-2.6-5.86-5.86v-3.11l3.88-14.45
						c-0.02-0.8-2.88-4.05-8.57-9.74l-0.8-2.74v-2.34c0-3.66,2.34-6.12,7.03-7.39c6.96,0.25,11.25,0.37,12.88,0.37
						c1.74-2.25,3.83-5.77,6.26-10.54C2046.26-437.42,2048.71-438.95,2051.63-438.95L2051.63-438.95z M2051.63-445.8
						c-3.7,0-8.97,1.34-13.11,7.7l-0.2,0.3l-0.16,0.32c-1.53,3-2.76,5.17-3.72,6.73c-1.96-0.05-4.84-0.14-9.07-0.29l-1.04-0.04
						l-1,0.27c-10.91,2.96-12.08,10.78-12.08,14.01v2.34v0.98l0.28,0.94l0.8,2.74l0.49,1.68l1.24,1.24
						c3.11,3.11,4.92,5.04,5.96,6.21l-3.05,11.36l-0.23,0.87v0.9v3.11v0.65l0.12,0.64c1.15,5.99,5.25,10.1,11.26,11.29l0.66,0.13
						h0.67h3.11c1.74,0,3.37-0.41,4.84-1.22l0.17-0.09l0.16-0.1l11.61-7.26c10.46,7.78,15.14,9.47,18.72,9.47h1.57
						c7.04,0,12.18-4.69,13.75-12.53l0.13-0.67v-0.68v-2.74c0-1.57-0.28-4.11-3.28-13.86c4.62-3.86,7.09-7.76,7.5-11.84
						c0.35-1.27,0.53-2.53,0.53-3.75c0-4.88-2.79-8.93-7.66-11.12c-2.77-1.25-6.33-1.96-10.82-2.16
						c-4.47-9.21-9.06-13.95-14.62-15.19l-0.11-0.02l-0.11-0.02C2053.81-445.7,2052.7-445.8,2051.63-445.8L2051.63-445.8z"/>
				</g>
				<g>
					<linearGradient id="SVGID_40_" gradientUnits="userSpaceOnUse" x1="2075.4705" y1="-377.6303" x2="2075.4705" y2="-313.9928">
						<stop  offset="0" style="stop-color:#ECBEA9"/>
						<stop  offset="1" style="stop-color:#FF9282"/>
					</linearGradient>
					<path class="st46" d="M2074.32-334.57c1.87,0.04,3.38,1.53,4.52,4.45c0.31-0.02,0.62-0.03,0.94-0.03
						c3.03,0,4.55,1.05,4.55,3.15v0.07l-0.03,0.77c0,0.49-1.03,1.96-3.08,4.42c0.74,1.76,1.1,3.28,1.1,4.55
						c0,0.33-0.02,0.65-0.07,0.94c-0.25,1.41-1.14,2.11-2.68,2.11c-0.02,0-0.06-0.01-0.1-0.03c-1.61-0.02-3.67-0.96-6.19-2.81
						c-2.65,2.01-4.53,3.01-5.62,3.01h-0.03c-1.09-0.02-1.93-0.43-2.51-1.24c-0.36-0.45-0.54-1-0.54-1.67
						c0-0.47,0.09-0.99,0.27-1.57c0.42-1.38,0.85-2.5,1.27-3.35c-2.16-2.28-3.25-4.22-3.25-5.82v-0.1c0.02-1.36,2.12-2.23,6.29-2.61
						c1.81-2.81,3.51-4.22,5.12-4.22H2074.32z M2073.11-338.72c-3.32-0.65-4.99-4.06-4.99-10.24c0-3.32,0.48-7.44,1.44-12.35
						c0.38-1.87,1.48-5.12,3.31-9.74c1.74-4.39,4.46-6.59,8.16-6.59h0.5c4.35,1.63,6.52,3.89,6.52,6.79c0,0.4-0.04,0.81-0.13,1.24
						c-0.07,0.27-0.98,3.54-2.74,9.8l-0.9,4.58c-0.4,2.05-0.69,5.58-0.87,10.57l-0.23,1.14c-0.31,3.64-2.25,5.45-5.82,5.45
						c-0.38,0-0.78-0.02-1.2-0.07L2073.11-338.72z"/>
					<path class="st2" d="M2081.54-377.63c4.35,1.63,6.52,3.89,6.52,6.79c0,0.4-0.04,0.81-0.13,1.24c-0.07,0.27-0.98,3.54-2.74,9.8
						l-0.9,4.58c-0.4,2.05-0.69,5.58-0.87,10.57l-0.23,1.14c-0.31,3.64-2.25,5.45-5.82,5.45c-0.38,0-0.78-0.02-1.2-0.07l-3.04-0.6
						c-3.32-0.65-4.99-4.06-4.99-10.24c0-3.32,0.48-7.44,1.44-12.35c0.38-1.87,1.48-5.12,3.31-9.74c1.74-4.39,4.46-6.59,8.16-6.59
						H2081.54L2081.54-377.63z M2074.32-334.57c1.87,0.04,3.38,1.53,4.52,4.45c0.31-0.02,0.62-0.03,0.94-0.03
						c3.03,0,4.55,1.05,4.55,3.15v0.07l-0.03,0.77c0,0.49-1.03,1.96-3.08,4.42c0.74,1.76,1.1,3.28,1.1,4.55
						c0,0.33-0.02,0.65-0.07,0.94c-0.25,1.41-1.14,2.11-2.68,2.11c-0.02,0-0.06-0.01-0.1-0.03c-1.61-0.02-3.67-0.96-6.19-2.81
						c-2.65,2.01-4.53,3.01-5.62,3.01h-0.03c-1.09-0.02-1.93-0.43-2.51-1.24c-0.36-0.45-0.54-1-0.54-1.67
						c0-0.47,0.09-0.99,0.27-1.57c0.42-1.38,0.85-2.5,1.27-3.35c-2.16-2.28-3.25-4.22-3.25-5.82v-0.1c0.02-1.36,2.12-2.23,6.29-2.61
						c1.81-2.81,3.51-4.22,5.12-4.22H2074.32L2074.32-334.57z M2082.78-384.48h-1.24h-0.5c-3.81,0-10.77,1.42-14.53,10.92
						c-2.02,5.11-3.19,8.57-3.66,10.9c-1.06,5.44-1.57,9.9-1.57,13.71c0,5.93,1.38,9.82,3.25,12.38c-1,0.23-1.89,0.5-2.69,0.83
						c-3.58,1.49-5.76,4.44-5.81,7.89l0,0.06v0.06v0.1c0,2.33,0.76,4.66,2.31,7.04c-0.01,0.04-0.03,0.08-0.04,0.12
						c-0.38,1.22-0.57,2.43-0.57,3.58c0,2.17,0.67,4.17,1.93,5.81c1.85,2.48,4.63,3.88,7.83,3.95l0.07,0h0.07
						c1.82,0,3.64-0.53,5.81-1.74c1.78,0.87,3.47,1.36,5.11,1.5c0.34,0.05,0.68,0.07,1.02,0.07c4.9,0,8.6-3.05,9.43-7.78l0.01-0.07
						l0.01-0.07c0.1-0.63,0.15-1.3,0.15-1.98c0-1.01-0.11-2.05-0.34-3.13c1.55-2.13,2.26-3.73,2.31-5.63l0.03-0.68l0.01-0.15v-0.15
						v-0.07c0-3.09-1.36-6.2-4.27-8.11c1.66-1.88,2.73-4.37,3.07-7.35l0.16-0.79l0.12-0.56l0.02-0.57c0.22-6.05,0.56-8.55,0.75-9.5
						l0.85-4.31c2.6-9.24,2.67-9.54,2.72-9.73l0.03-0.12l0.03-0.13c0.19-0.89,0.28-1.78,0.28-2.65c0-3.4-1.43-9.63-10.97-13.21
						L2082.78-384.48L2082.78-384.48z"/>
				</g>
			</g>
		</g>
	</g>
	<g>
		<circle class="st2" cx="384.86" cy="25.43" r="11.82"/>
		<circle class="st2" cx="447.61" cy="135.66" r="5.54"/>
		<circle class="st2" cx="609.2" cy="294.61" r="8.19"/>
		<circle class="st2" cx="168.79" cy="300.42" r="16.37"/>
		<path class="st2" d="M611.05,407.09c-0.09-0.01-0.18-0.02-0.26-0.03c-7.13-0.67-12.34-6.82-11.55-13.94
			c0.61-5.47,1.21-10.62,1.71-14.41c1.78-13.66-1.39-31.29-17.03-65.15c-15.64-33.86-28.12-38.22-36.04-40.2
			c-7.92-1.98-6.34-4.95-6.53-9.51c-0.2-4.55,15.05-50.5,16.04-53.66c0.99-3.17-1.58-9.11-4.55-11.29
			c-2.97-2.18-13.86,1.19-37.62,3.17c-23.76,1.98-55.45,25.15-65.15,31.29c-9.7,6.14-11.09,2.38-12.48-1.78
			c-1.39-4.16,12.48-32.87,12.48-32.87s-0.59-10.89-12.28-9.31c-11.68,1.58-18.02-1.39-21.78-4.55c-3.76-3.17-3.37-22.18-7.52-45.15
			c-2.58-14.26-10.28-27.15-15.74-34.87c-2.99-4.22-4.45-9.38-3.91-14.52c0.7-6.63-0.56-15.14-4.7-18.73
			c-3.47-3-9.67-3.15-14.24-2.76c-3.57,0.31-7.13-0.3-10.52-1.43c-13.93-4.67-32.87,3.22-56.43,2.28
			c-26.4-1.06-54.92-24.82-55.98-26.4c-1.06-1.58-15.84-12.67-24.29,0s-4.75,26.4,5.81,76.57c10.56,50.17,78.15,120.4,78.15,120.4
			s7.79,8.38-15.58,13.33c-23.37,4.95-57.82,29.51-70.89,42.58c-13.07,13.07-12.08,21.58-24.16,28.32
			c-12.08,6.73-18.22,6.73-24.75,27.92c-2.38,7.72-4.75,22.38-11.29,26.73c-6.53,4.36-13.86,21.39,5.15,32.87
			c8.64,5.22,20.2,5.74,20.99,16.44c0.79,10.69,11.49,65.74,31.09,104.95c19.6,39.21,63.57,60.99,86.34,73.67
			c22.77,12.67,63.76,28.12,71.69,28.32c4.89,0.12,18-0.28,27.33-0.61c6.73-0.24,13.45,0.69,19.87,2.72l13.15,4.18
			c6.9,2.19,14.38,1.64,20.88-1.55l25.61-12.56c3.82-1.88,8.1-2.63,12.34-2.18l8.95,0.96c17.11,1.83,32.49-10.48,34.45-27.58
			l3.16-27.5c0.52-4.5,2.84-8.62,6.47-11.33c7.48-5.6,19.07-15.47,20.49-17.61c9.51-14.26,5.35-44.75,10.1-52.28
			c4.75-7.52,6.73-16.44,11.49-26.34c2.18-4.54,3.74-13.33,4.78-21.52c0.47-3.7,4.44-5.71,7.79-4.07c2.16,1.06,4.6,1.66,7.17,1.66
			c9.65,0,17.35-8.35,16.27-18.22C624.64,414,618.55,407.91,611.05,407.09z M439.35,264.54l0.03-0.03
			c13.71-12.5,45.95-38.31,84.64-44.87c3.83-0.65,6.98,3.02,5.76,6.71c-4.45,13.48-15.5,40.51-34.66,48.72
			c-14.28,6.12-31.91,4.36-44.86,1.55c-1.5-0.33-1.72-2.36-0.32-3.01c15.25-7.11,32.4-18.66,42.08-25.52
			c-15.24,9.51-37.11,15.8-51.25,19.16C439.19,267.62,438.15,265.64,439.35,264.54z M401.03,209.37c0.39-4.65,4.85-7.8,9.39-6.72
			c4.29,1.03,9.38,2.65,13.03,5.08c3.07,2.05,4.2,6.04,2.69,9.41c-3.27,7.32-9.54,25.01-9.3,52.5c0.02,1.76-1.25,3.36-3,3.52
			c-1.36,0.12-2.58-0.56-3.21-1.64l-5.21-8.89c-2.17-3.7-3.45-7.85-3.76-12.13C400.96,240.8,399.94,222.48,401.03,209.37z
			 M281.8,174.74c-42.77-73.4-53.86-109.84-50.69-116.7s26.93,30.1,75.51,31.16c48.58,1.06,83.96,19.54,85.02,56.5
			c0.6,21.03-3.41,46.92-4.74,69.89c-0.2,3.39-4.16,5.14-6.82,3.01c-99.18-79.23-104.88-109.61-104.88-109.61
			c-0.69,24.36,54.94,93.72,82.95,129.39c2.8,3.57-1.29,8.41-5.28,6.25C330.73,232.67,303.22,211.5,281.8,174.74z M569.59,390.72
			c-1.58,22.18-1.58,39.61-7.92,56.5c-6.34,16.9-11.09,45.41-18.48,58.09c-7.39,12.67-21.65,42.77-28.52,50.17
			c-6.86,7.39-63.37,59.67-125.15,64.42c-52.65,4.05-101.08-59.39-114.25-78.24c-1.32-1.89-4.26-1.26-4.7,1.01l-1.69,8.84
			c-0.82,4.27-6.09,5.86-9.13,2.76c-19.48-19.92-70.59-80.07-57.7-151.41c15.84-87.66,64.95-115.12,64.95-115.12
			s43.83-37.23,89.77-26.4c45.94,10.83,166.87,126.21,92.41,278.29c0,0,67.86-112.43,12.64-215.28c-2.99-5.56-6.95-10.5-11.2-15.17
			c-1.99-2.19-3.22-4.97-3.5-7.91c-0.32-3.39,1.55-6.62,4.63-8.09l3.08-1.47c1.84-0.88,3.84-1.33,5.88-1.33
			c10.32,0.01,43.25,0.08,48.14,0.53c5.81,0.53,30.63,2.11,40.13,31.16C558.5,351.11,571.18,368.54,569.59,390.72z"/>
		<circle class="st2" cx="109.65" cy="405.5" r="8.45"/>
		<circle class="st2" cx="491.44" cy="657.92" r="10.56"/>
		<circle class="st2" cx="563.78" cy="678.51" r="6.34"/>
		<circle class="st2" cx="601.01" cy="581.88" r="16.37"/>
	</g>
</g>
<g id="Calque_4">
</g>
<g id="Logo_final_colored">
</g>
</svg>
